<svg xmlns="http://www.w3.org/2000/svg" width="42" height="42" viewBox="0 0 42 42">
    <g fill="none" fill-rule="evenodd" transform="translate(1 1)">
        <circle cx="20" cy="20" r="20" fill="#FFF" fill-opacity="0" fill-rule="nonzero" stroke="#F48C37"/>
        <path fill="#F48C37" d="M20 11.515a.745.745 0 0 1 .75.75v6.25a.755.755 0 0 0 .75.75l6.243-.007a.75.75 0 0 1 0 1.484h-6.251a.755.755 0 0 0-.75.75v6.25a.75.75 0 1 1-1.484 0v-6.25a.755.755 0 0 0-.75-.75h-6.25a.75.75 0 1 1 0-1.484h6.25a.755.755 0 0 0 .75-.75v-6.25a.745.745 0 0 1 .742-.743z"/>
    </g>
</svg>
