<svg xmlns="http://www.w3.org/2000/svg" width="64" height="64" viewBox="0 0 64 64">
    <g fill="none" fill-rule="nonzero">
        <path fill="#FFF" d="M0 0h63.947v63.947H0z" opacity=".01"/>
        <path fill="#37A0F4" d="M39.84 57.333H16.107a3.24 3.24 0 0 1-3.24-3.24V9.88a3.24 3.24 0 0 1 3.24-3.213H39.84a3.24 3.24 0 0 1 3.24 3.24v3.826a1.333 1.333 0 0 1-2.667 0V9.88a.573.573 0 0 0-.573-.547H16.107a.573.573 0 0 0-.574.574v44.16c0 .316.257.573.574.573H39.84a.573.573 0 0 0 .573-.573V41.12a1.333 1.333 0 0 1 2.667 0v12.947a3.24 3.24 0 0 1-3.24 3.266z"/>
        <path fill="#FD9644" d="M32.507 41.573H28.44a1.893 1.893 0 0 1-1.907-1.88v-6.466c.002-.544.24-1.06.654-1.414a1.933 1.933 0 0 1 1.573-.426l4.067.666a1.88 1.88 0 0 1 1.6 1.854v5.786a1.893 1.893 0 0 1-1.92 1.88zM29.2 38.907h2.56v-4.334l-2.56-.413v4.747z"/>
        <path fill="#FD9644" d="M48 37.213h-.533l-20.8-3.48a3.027 3.027 0 0 1-2.587-2.946v-4.654a3.04 3.04 0 0 1 2.28-2.893l20.76-5.56a3.213 3.213 0 0 1 2.787.547 2.933 2.933 0 0 1 1.173 2.333v13.667a2.96 2.96 0 0 1-1.053 2.24 3.147 3.147 0 0 1-2.027.746zm-20.893-6.106l20.76 3.44a.587.587 0 0 0 .426-.107.293.293 0 0 0 .12-.213V20.56a.28.28 0 0 0-.133-.227.56.56 0 0 0-.467-.08l-20.76 5.56c-.173 0-.306.174-.306.32v4.654c0 .146.16.28.36.32z"/>
        <path fill="#FD9644" d="M26.747 32.56H23.64a1.907 1.907 0 0 1-1.893-1.893v-4.334a1.907 1.907 0 0 1 1.893-1.893h3.107v8.12z"/>
        <path fill="#37A0F4" d="M28 51.32a2 2 0 1 1 0-4 2 2 0 0 1 0 4zm0-2.667a.68.68 0 0 0-.667.667.667.667 0 1 0 .667-.667z"/>
    </g>
</svg>
