<svg xmlns="http://www.w3.org/2000/svg" width="64" height="64" viewBox="0 0 64 64">
    <g fill="none" fill-rule="nonzero">
        <path fill="#FFF" d="M0 0h63.947v63.947H0z" opacity=".01"/>
        <path fill="#37A0F4" d="M40.627 57.12H20.813A14.107 14.107 0 0 1 6.667 43.027V23.213A14.107 14.107 0 0 1 20.813 9.12h14.44a1.333 1.333 0 0 1 0 2.667h-14.44a11.427 11.427 0 0 0-11.48 11.426v19.814c.008 6.307 5.12 11.419 11.427 11.426h19.867C46.91 54.41 51.986 49.311 52 43.027v-14.48a1.333 1.333 0 1 1 2.667 0v14.48c-.015 7.756-6.284 14.05-14.04 14.093z"/>
        <path fill="#FD9644" d="M36.893 34.84l-7.56-.293V27.16L48.12 8.267a5.333 5.333 0 0 1 7.453.226 5.507 5.507 0 0 1 1.654 3.72A4.973 4.973 0 0 1 55.8 16L36.893 34.84zM32 32l3.893.147 18.014-18.094a2.267 2.267 0 0 0 .653-1.746 2.907 2.907 0 0 0-.867-1.934 2.667 2.667 0 0 0-3.68-.213L31.907 28.253 32 32z"/>
        <path fill="#37A0F4" d="M43.507 45.973h-13.56a1.333 1.333 0 1 1 0-2.666h13.56a1.333 1.333 0 1 1 0 2.666zM20.267 20.453a2 2 0 1 1 0 4 2 2 0 0 1 0-4zm0-1.333a3.333 3.333 0 1 0 0 6.667 3.333 3.333 0 0 0 0-6.667zM20.267 31.12a2 2 0 1 1 0 4 2 2 0 0 1 0-4zm0-1.333a3.333 3.333 0 1 0 0 6.666 3.333 3.333 0 0 0 0-6.666zM20.267 41.787a2 2 0 1 1 0 4 2 2 0 0 1 0-4zm0-1.334a3.333 3.333 0 1 0 0 6.667 3.333 3.333 0 0 0 0-6.667z"/>
    </g>
</svg>
