<svg xmlns="http://www.w3.org/2000/svg" xmlns:xlink="http://www.w3.org/1999/xlink" width="24" height="24" viewBox="0 0 24 24">
    <defs>
        <circle id="b" cx="12" cy="12" r="10"/>
        <filter id="a" width="165%" height="165%" x="-32.5%" y="-27.5%" filterUnits="objectBoundingBox">
            <feOffset dy="1" in="SourceAlpha" result="shadowOffsetOuter1"/>
            <feGaussianBlur in="shadowOffsetOuter1" result="shadowBlurOuter1" stdDeviation="2"/>
            <feColorMatrix in="shadowBlurOuter1" values="0 0 0 0 0 0 0 0 0 0 0 0 0 0 0 0 0 0 0.16 0"/>
        </filter>
    </defs>
    <g fill="none" fill-rule="evenodd">
        <path fill="none" d="M0 0h24v24H0z"/>
        <use fill="#000" filter="url(#a)" xlink:href="#b"/>
        <use fill="#FFF" xlink:href="#b"/>
        <path fill="#37A0F4" d="M14.566 17H9.434A2.434 2.434 0 0 1 7 14.566V9.434A2.434 2.434 0 0 1 9.434 7h2.561a.73.73 0 0 1 0 1.46h-2.56a.974.974 0 0 0-.974.974v5.132c0 .537.436.973.973.973h5.132a.974.974 0 0 0 .973-.973V12A.73.73 0 0 1 17 12v2.566A2.434 2.434 0 0 1 14.566 17z"/>
        <path fill="#37A0F4" d="M17.79 7.694l-5.483 5.483c-.123.077-1.822 1.127-2.218.736a.366.366 0 0 1-.088-.268c0-.623.762-1.848.824-1.951l5.482-5.483a.772.772 0 0 1 1.086.025l.37.371a.772.772 0 0 1 .026 1.087z"/>
    </g>
</svg>
