<svg xmlns="http://www.w3.org/2000/svg" width="18" height="18" viewBox="0 0 18 18">
    <g fill="none" fill-rule="evenodd">
        <path fill="#FFF" fill-opacity="0" fill-rule="nonzero" d="M-3-3h24v24H-3z"/>
        <path fill="#FBBC05" d="M3.764 9c0-.572.097-1.12.27-1.634l-3.03-2.264A8.646 8.646 0 0 0 .083 9c0 1.401.332 2.723.921 3.896l3.028-2.27A5.108 5.108 0 0 1 3.764 9"/>
        <path fill="#EA4335" d="M9.082 3.8c1.268 0 2.413.44 3.313 1.16l2.619-2.56C13.418 1.04 11.373.2 9.082.2 5.525.2 2.468 2.192 1.005 5.102l3.029 2.264C4.732 5.292 6.72 3.8 9.082 3.8"/>
        <path fill="#34A853" d="M9.082 14.2c-2.361 0-4.35-1.492-5.048-3.566l-3.03 2.264c1.464 2.91 4.521 4.902 8.078 4.902 2.195 0 4.29-.763 5.864-2.193L12.07 13.43c-.812.5-1.833.77-2.99.77"/>
        <path fill="#4285F4" d="M17.673 9c0-.52-.082-1.08-.205-1.6H9.082v3.4h4.827a3.964 3.964 0 0 1-1.838 2.63l2.875 2.177c1.652-1.502 2.727-3.739 2.727-6.607"/>
    </g>
</svg>
