<svg xmlns="http://www.w3.org/2000/svg" width="32" height="28" viewBox="0 0 32 28">
    <g fill="none" fill-rule="evenodd">
        <path d="M0-4h32v32H0z"/>
        <g fill="#6A7C95" fill-rule="nonzero">
            <path d="M28 4h-4l-4-4h-8.001L8 4H4S0 4 0 8v12c0 4 4 4 4 4h11.518a8.99 8.99 0 0 0 15.918-1.888A5.008 5.008 0 0 0 32 20V8c0-4-4-4-4-4zM14.033 19.66A5.988 5.988 0 0 1 10 14a6 6 0 0 1 6-6c1.914 0 3.607.908 4.706 2.306C16.848 11.321 14 14.822 14 19c0 .223.018.441.033.66zM23 25.883A6.898 6.898 0 0 1 16.115 19 6.898 6.898 0 0 1 23 12.115 6.898 6.898 0 0 1 29.883 19 6.898 6.898 0 0 1 23 25.883z"/>
            <path d="M28 18h-3.998v-4H22v4h-4v2h4v4h2.002v-4H28z"/>
        </g>
    </g>
</svg>
