<svg xmlns="http://www.w3.org/2000/svg" width="24" height="24" viewBox="0 0 24 24">
    <g fill="none" fill-rule="nonzero">
        <path fill="#37A0F4" d="M19 22H5V4.37a1 1 0 0 1 1-1h12a1 1 0 0 1 1 1V22zm-13.5-.5h13V4.365a.5.5 0 0 0-.5-.5H6a.5.5 0 0 0-.5.5V21.5z"/>
        <path fill="#37A0F4" d="M10.855 9.335h-2.97a.39.39 0 0 1-.39-.395V6a.39.39 0 0 1 .39-.39h2.945c.23 0 .415.186.415.415v2.93a.39.39 0 0 1-.39.38zM7.885 5.97v2.97h3V6a.04.04 0 0 0-.04-.04l-2.96.01zM16.09 9.335h-2.965a.395.395 0 0 1-.395-.395V6a.395.395 0 0 1 .395-.39h2.94A.415.415 0 0 1 16.5 6v2.93a.39.39 0 0 1-.41.405zM13.125 5.97v2.97h3V6a.035.035 0 0 0-.04-.04l-2.96.01zM10.855 14.555h-2.97a.39.39 0 0 1-.39-.39V11.21a.39.39 0 0 1 .39-.395h2.945a.42.42 0 0 1 .415.42v2.93a.39.39 0 0 1-.39.39zm-2.97-3.365v2.975h3v-2.93a.045.045 0 0 0-.04-.045h-2.96zM16.09 14.555h-2.965a.395.395 0 0 1-.395-.39V11.21c0-.218.177-.395.395-.395h2.94a.42.42 0 0 1 .415.42v2.93a.39.39 0 0 1-.39.39zm-2.965-3.365v2.975h3v-2.93a.04.04 0 0 0-.04-.045h-2.96zM10.855 19.78h-2.97a.39.39 0 0 1-.39-.39v-2.96a.39.39 0 0 1 .39-.39h2.945c.23 0 .415.186.415.415v2.935a.39.39 0 0 1-.39.39zm-2.97-3.365v3h3v-2.96a.045.045 0 0 0-.04-.04h-2.96zM16.09 19.78h-2.965a.395.395 0 0 1-.395-.39v-2.96a.395.395 0 0 1 .395-.39h2.94c.23 0 .415.186.415.415v2.935a.39.39 0 0 1-.39.39zm-2.965-3.365v3h3v-2.96a.04.04 0 0 0-.04-.04h-2.96zM16.66 3.885H7.315V2.94a.95.95 0 0 1 .95-.94h7.45a.95.95 0 0 1 .945.95v.935zm-8.845-.5h8.345V2.94a.445.445 0 0 0-.445-.45h-7.45a.45.45 0 0 0-.45.45v.445z"/>
        <path fill="#FFF" d="M0 0h23.98v23.98H0z" opacity=".01"/>
    </g>
</svg>
