<svg xmlns="http://www.w3.org/2000/svg" width="24" height="24" viewBox="0 0 24 24">
    <g fill="none" fill-rule="nonzero">
        <path fill="#FFF" fill-opacity="0" d="M0 .034h23.51v23.51H0z"/>
        <path fill="#FFF" fill-opacity="0" d="M0 .034h23.51v23.51H0z"/>
        <path fill="#37A0F4" d="M8.944 21.061H7.837a1.327 1.327 0 0 1-1.328-1.327v-.416h3.777v.416a1.327 1.327 0 0 1-1.342 1.327zm-1.96-1.254c.037.44.41.776.853.764h1.107a.838.838 0 0 0 .852-.744l-2.812-.02zM15.953 21.061H14.85a1.327 1.327 0 0 1-1.333-1.327v-.416h3.767v.416a1.327 1.327 0 0 1-1.332 1.327zm-1.96-1.254a.833.833 0 0 0 .858.764h1.102c.435.002.799-.33.837-.764h-2.797z"/>
        <path fill="#37A0F4" d="M17.902 19.704h-12a2.821 2.821 0 0 1-2.821-2.82V5.45A3.017 3.017 0 0 1 6.093 2.45h11.618c1.657.003 3 1.345 3.002 3.002v11.442a2.816 2.816 0 0 1-2.811 2.811zM6.093 2.94A2.527 2.527 0 0 0 3.571 5.46v11.422a2.331 2.331 0 0 0 2.331 2.332h12a2.322 2.322 0 0 0 2.322-2.322V5.442a2.513 2.513 0 0 0-2.513-2.503H6.093z"/>
        <path fill="#37A0F4" d="M15.566 17.31H8.253a2.728 2.728 0 0 1-2.723-2.724V7.73a2.9 2.9 0 0 1 2.894-2.895h6.946a2.9 2.9 0 0 1 2.894 2.895v6.882a2.699 2.699 0 0 1-2.698 2.698zM8.424 5.323A2.41 2.41 0 0 0 6.02 7.73v6.857a2.238 2.238 0 0 0 2.233 2.234h7.313c1.22 0 2.209-.99 2.209-2.21V7.754A2.405 2.405 0 0 0 15.37 5.35l-6.946-.025z"/>
        <rect width="1.469" height="3.835" x="15.086" y="9.154" fill="#37A0F4" rx=".735"/>
        <path fill="#37A0F4" d="M10.403 14.204a3.12 3.12 0 1 1 3.184-3.12 3.154 3.154 0 0 1-3.184 3.12zm0-5.75a2.63 2.63 0 1 0 2.694 2.63 2.664 2.664 0 0 0-2.694-2.64v.01z"/>
        <ellipse cx="10.403" cy="11.074" fill="#37A0F4" rx="1.224" ry="1.2"/>
        <path fill="#FFF" d="M.152 0h23.491v23.491H.152z" opacity=".01"/>
    </g>
</svg>
