<svg xmlns="http://www.w3.org/2000/svg" width="24" height="24" viewBox="0 0 24 24">
    <g fill="none" fill-rule="nonzero">
        <path fill="#FFF" d="M0 0h23.98v23.98H0z" opacity=".01"/>
        <path fill="#37A0F4" d="M8.265 2.24h7.45a.695.695 0 0 1 .695.695v.7H7.57V2.94a.695.695 0 0 1 .695-.7z"/>
        <path fill="#FFF" d="M16.665 3.885H7.32V2.94A.95.95 0 0 1 8.265 2h7.45a.95.95 0 0 1 .95.95v.935zm-8.845-.5h8.345V2.94a.45.45 0 0 0-.45-.45h-7.45a.445.445 0 0 0-.445.45v.445z"/>
        <path fill="#37A0F4" d="M6 3.635h12a.73.73 0 0 1 .73.73V21.74H5.23V4.37A.74.74 0 0 1 6 3.635z"/>
        <path fill="#FFF" d="M19 22H5V4.37a1 1 0 0 1 1-1h12a1 1 0 0 1 1 1V22zm-13.5-.5h13V4.365a.5.5 0 0 0-.5-.5H6a.5.5 0 0 0-.5.5V21.5z"/>
        <path fill="#FFF" d="M10.855 9.335H7.89a.395.395 0 0 1-.395-.395V6a.395.395 0 0 1 .395-.39h2.94c.23 0 .415.186.415.415v2.93a.39.39 0 0 1-.39.38zM7.89 5.97v2.97h3V6a.035.035 0 0 0-.04-.04l-2.96.01zM16.09 9.335h-2.965a.39.39 0 0 1-.39-.395V6a.39.39 0 0 1 .39-.39h2.945a.415.415 0 0 1 .43.39v2.93a.395.395 0 0 1-.41.405zM13.125 5.97v2.97h3V6a.04.04 0 0 0-.04-.04l-2.96.01zM10.855 14.555H7.89a.395.395 0 0 1-.395-.39V11.21c0-.218.177-.395.395-.395h2.94c.23 0 .415.186.415.415v2.935a.39.39 0 0 1-.39.39zM7.89 11.19v2.975h3V11.23a.04.04 0 0 0-.04-.04H7.89zM16.09 14.555h-2.965a.39.39 0 0 1-.39-.39V11.21a.39.39 0 0 1 .39-.395h2.945a.42.42 0 0 1 .415.415v2.935a.39.39 0 0 1-.395.39zm-2.965-3.365v2.975h3V11.23a.045.045 0 0 0-.04-.04h-2.96zM10.855 19.78H7.89a.395.395 0 0 1-.395-.39v-2.96a.395.395 0 0 1 .395-.39h2.94c.23 0 .415.186.415.415v2.935a.39.39 0 0 1-.39.39zM7.89 16.415v3h3v-2.96a.04.04 0 0 0-.04-.04H7.89zM16.09 19.78h-2.965a.39.39 0 0 1-.39-.39v-2.96a.39.39 0 0 1 .39-.39h2.945c.23 0 .415.186.415.415v2.935a.39.39 0 0 1-.395.39zm-2.965-3.365v3h3v-2.96a.045.045 0 0 0-.04-.04h-2.96z"/>
    </g>
</svg>
