<svg xmlns="http://www.w3.org/2000/svg" width="24" height="24" viewBox="0 0 24 24">
    <g fill="none" fill-rule="nonzero">
        <path fill="#FFF" d="M0 0h23.98v23.98H0z" opacity=".01"/>
        <path fill="#37A0F4" d="M6.46 19.71v.425A1.355 1.355 0 0 0 7.815 21.5h1.13a1.355 1.355 0 0 0 1.36-1.355v-.425l-3.845-.01zM13.615 19.71v.425A1.355 1.355 0 0 0 15 21.5h1.1a1.355 1.355 0 0 0 1.36-1.355v-.425l-3.845-.01z"/>
        <path fill="#37A0F4" d="M6.035 2.74h11.86a2.815 2.815 0 0 1 2.815 2.815v11.69a2.62 2.62 0 0 1-2.62 2.62H5.84a2.63 2.63 0 0 1-2.63-2.63V5.565A2.825 2.825 0 0 1 6.035 2.74z"/>
        <path fill="#FFF" d="M18.09 20.115H5.84a2.885 2.885 0 0 1-2.88-2.88V5.565A3.08 3.08 0 0 1 6.035 2.5h11.86a3.07 3.07 0 0 1 3.065 3.065v11.68a2.875 2.875 0 0 1-2.87 2.87zM6.035 3A2.58 2.58 0 0 0 3.46 5.575v11.66a2.385 2.385 0 0 0 2.38 2.38h12.25a2.375 2.375 0 0 0 2.37-2.37V5.555A2.565 2.565 0 0 0 17.895 3H6.035z"/>
        <path fill="#FFF" d="M15.87 17.935H8.08a2.9 2.9 0 0 1-2.895-2.895v-7.3A3.08 3.08 0 0 1 8.26 4.67h7.4a3.07 3.07 0 0 1 3.07 3.07v7.33c0 1.58-1.28 2.862-2.86 2.865zM8.26 5.17a2.575 2.575 0 0 0-2.575 2.57v7.3a2.4 2.4 0 0 0 2.395 2.395h7.79a2.36 2.36 0 0 0 2.36-2.365V7.74a2.57 2.57 0 0 0-2.57-2.57h-7.4z"/>
        <rect width="1.5" height="3.91" x="15.225" y="9.35" fill="#FFF" rx=".75"/>
        <path fill="#FFF" d="M10.445 14.5a3.185 3.185 0 1 1 3.25-3.185 3.22 3.22 0 0 1-3.25 3.185zm0-5.865a2.685 2.685 0 1 0 2.75 2.68 2.72 2.72 0 0 0-2.75-2.695v.015z"/>
        <ellipse cx="10.445" cy="11.3" fill="#FFF" rx="1.25" ry="1.22"/>
    </g>
</svg>
