<svg xmlns="http://www.w3.org/2000/svg" width="20" height="20" viewBox="0 0 20 20">
    <g fill="none" fill-rule="evenodd">
        <path fill="#37A0F4" fill-rule="nonzero" d="M14 0a6 6 0 0 1 6 6v8a6 6 0 0 1-6 6H6a6 6 0 0 1-6-6V6a6 6 0 0 1 6-6h8z"/>
        <path fill="#FFF" d="M15.63 7.35l-6.37 6.365a.595.595 0 0 1-.245.16.81.81 0 0 1-.25.055.41.41 0 0 1-.135 0 .195.195 0 0 1-.09 0 .145.145 0 0 1-.07 0 .67.67 0 0 1-.2-.12l-.05-.04-3.785-3.17a.75.75 0 0 1-.105-1.1l.04-.05a.75.75 0 0 1 1-.04l2.725 2.29a.775.775 0 0 0 .12.095c.296.196.69.157.94-.095l5.4-5.395a.745.745 0 0 1 1.06 0c.284.288.29.749.015 1.045z"/>
    </g>
</svg>
