<svg xmlns="http://www.w3.org/2000/svg" width="24" height="24" viewBox="0 0 24 24">
    <g fill="none" fill-rule="nonzero">
        <path fill="#FFF" d="M0 0h23.98v23.98H0z" opacity=".01"/>
        <path fill="#37A0F4" d="M7.72 2.54L2.69 7.655a1 1 0 0 0-.29.71v7.25a1 1 0 0 0 .29.71l5.03 5.115a1 1 0 0 0 .72.3h7.1a1 1 0 0 0 .72-.3l5.03-5.115a1 1 0 0 0 .29-.71v-7.25a1 1 0 0 0-.29-.71L16.26 2.54a1 1 0 0 0-.72-.3h-7.1a1 1 0 0 0-.72.3z"/>
        <path fill="#37A0F4" d="M15.54 22h-7.1c-.337 0-.659-.135-.895-.375L2.5 16.5a1.27 1.27 0 0 1-.36-.885v-7.25A1.27 1.27 0 0 1 2.5 7.5l5.045-5.135c.239-.234.56-.366.895-.365h7.1c.338.002.66.137.9.375L21.47 7.5c.232.236.362.554.36.885v7.25a1.25 1.25 0 0 1-.36.865l-5.03 5.115c-.237.243-.56.382-.9.385zM8.44 2.5a.78.78 0 0 0-.54.225l-5.035 5.11a.745.745 0 0 0-.215.53v7.25c0 .2.076.392.215.535L7.9 21.265a.755.755 0 0 0 .54.225h7.1c.203 0 .398-.08.54-.225l5.035-5.115a.765.765 0 0 0 .215-.535v-7.25a.745.745 0 0 0-.215-.53l-5.035-5.12a.78.78 0 0 0-.54-.215h-7.1z"/>
        <ellipse cx="11.99" cy="11.99" fill="#FFF" rx="3.775" ry="3.84"/>
    </g>
</svg>
