<svg xmlns="http://www.w3.org/2000/svg" width="24" height="24" viewBox="0 0 24 24">
    <g fill="none" fill-rule="nonzero">
        <path fill="#37A0F4" d="M10.065 16.695h-1.74a.5.5 0 0 1-.5-.5V13.23A.5.5 0 0 1 8 12.85a.5.5 0 0 1 .405-.11l1.74.31a.5.5 0 0 1 .41.5v2.655a.5.5 0 0 1-.49.49zm-1.74-3.465v2.965h1.735V13.54l-1.735-.31z"/>
        <path fill="#37A0F4" d="M16.665 14.7a.695.695 0 0 1-.175 0l-8.875-1.595a1 1 0 0 1-.835-1V10a1 1 0 0 1 .72-1l8.87-2.55a1 1 0 0 1 1.295.975v6.26a1 1 0 0 1-1 1v.015zm0-7.79a.45.45 0 0 0-.14 0L7.65 9.5a.5.5 0 0 0-.37.5v2.135a.5.5 0 0 0 .425.5l8.87 1.575a.5.5 0 0 0 .605-.5V7.425a.5.5 0 0 0-.5-.5l-.015-.015z"/>
        <path fill="#37A0F4" d="M7.28 12.56h-1a.5.5 0 0 1-.5-.5v-2a.5.5 0 0 1 .5-.5h1v3zm-1-2.5v2h.5v-2h-.5z"/>
        <path fill="#37A0F4" d="M5.165 22a.76.76 0 0 1-.37-.085.665.665 0 0 1-.325-.53 1.465 1.465 0 0 1 .315-.92c.405-.67.96-1.595-.44-3.73a9.5 9.5 0 0 1-1.605-5.32A9.35 9.35 0 0 1 12 2a9.35 9.35 0 0 1 9.25 9.425 9.35 9.35 0 0 1-9.25 9.42 7.885 7.885 0 0 1-1.735-.165c-.785-.18-2.53.38-3.135.615-.14.055-.295.13-.455.2a4.19 4.19 0 0 1-1.51.505zm-.4-5.55c1.57 2.4.895 3.5.45 4.265-.14.171-.228.38-.25.6 0 .12.06.145.075.15.22.125.94-.205 1.42-.425l.475-.21c.1-.04 2.335-.89 3.43-.64a7.22 7.22 0 0 0 1.625.155 8.85 8.85 0 0 0 8.75-8.93A8.85 8.85 0 0 0 12 2.5a8.85 8.85 0 0 0-8.76 8.915 9 9 0 0 0 1.5 5.035l-.17.115.195-.115z"/>
        <path fill="#FFF" d="M0 0h23.98v23.98H0z" opacity=".01"/>
    </g>
</svg>
