<svg xmlns="http://www.w3.org/2000/svg" width="24" height="24" viewBox="0 0 24 24">
    <g fill="none" fill-rule="nonzero">
        <path fill="#37A0F4" d="M15.54 22h-7.1c-.337 0-.659-.135-.895-.375L2.5 16.5a1.27 1.27 0 0 1-.36-.885v-7.25A1.27 1.27 0 0 1 2.5 7.5l5.045-5.135c.239-.234.56-.366.895-.365h7.1c.338.002.66.137.9.375L21.47 7.5c.232.236.362.554.36.885v7.25a1.25 1.25 0 0 1-.36.865l-5.03 5.115c-.237.243-.56.382-.9.385zM8.44 2.5a.78.78 0 0 0-.54.225l-5.035 5.11a.745.745 0 0 0-.215.53v7.25a.75.75 0 0 0 .22.535l5.03 5.115a.755.755 0 0 0 .54.225h7.1c.203 0 .398-.08.54-.225l5.035-5.115a.765.765 0 0 0 .215-.535v-7.25a.745.745 0 0 0-.215-.53l-5.035-5.12a.78.78 0 0 0-.54-.215h-7.1z"/>
        <path fill="#37A0F4" d="M12 16.08A4.09 4.09 0 1 1 16 12a4.06 4.06 0 0 1-4 4.08zm0-7.68a3.59 3.59 0 1 0 3.5 3.6A3.56 3.56 0 0 0 12 8.4z"/>
        <path fill="#FFF" d="M0 0h23.98v23.98H0z" opacity=".01"/>
    </g>
</svg>
