<svg xmlns="http://www.w3.org/2000/svg" xmlns:xlink="http://www.w3.org/1999/xlink" width="48" height="48" viewBox="0 0 48 48">
    <defs>
        <rect id="b" width="40" height="40" rx="8"/>
        <filter id="a" width="132.5%" height="132.5%" x="-16.2%" y="-13.8%" filterUnits="objectBoundingBox">
            <feOffset dy="1" in="SourceAlpha" result="shadowOffsetOuter1"/>
            <feGaussianBlur in="shadowOffsetOuter1" result="shadowBlurOuter1" stdDeviation="2"/>
            <feColorMatrix in="shadowBlurOuter1" values="0 0 0 0 0 0 0 0 0 0 0 0 0 0 0 0 0 0 0.16 0"/>
        </filter>
        <path id="c" d="M0 0H23.99v22.588H0z"/>
    </defs>
    <g fill="none" fill-rule="evenodd">
        <g transform="translate(4 3)">
            <use fill="#000" filter="url(#a)" xlink:href="#b"/>
            <use fill="#FFF" xlink:href="#b"/>
        </g>
        <g transform="translate(12 12)">
            <mask id="d" fill="#fff">
                <use xlink:href="#c"/>
            </mask>
            <path fill="#00B900" d="M23.989 9.62c0-5.305-5.38-9.62-11.995-9.62C5.381 0 0 4.315 0 9.62c0 4.754 4.267 8.736 10.031 9.49.39.083.922.254 1.057.584.12.3.079.769.039 1.072l-.172 1.014c-.052.3-.24 1.172 1.04.64 1.28-.534 6.907-4.02 9.424-6.883h-.001c1.738-1.883 2.57-3.795 2.57-5.918" mask="url(#d)"/>
        </g>
        <path fill="#FFF" d="M21.63 19.059h-.907c-.14 0-.252.103-.252.231v5.185c0 .127.113.23.252.23h.907c.14 0 .252-.103.252-.23V19.29c0-.128-.113-.231-.252-.231M27.297 19.059h-.836a.232.232 0 0 0-.232.231v3.08l-2.38-3.208a.308.308 0 0 0-.018-.024l-.001-.001a.248.248 0 0 0-.014-.014l-.004-.004a.132.132 0 0 0-.013-.01l-.006-.006-.012-.008a.085.085 0 0 0-.007-.004l-.012-.007-.008-.003-.013-.006c-.003 0-.005-.002-.008-.003l-.013-.004-.008-.002a.334.334 0 0 0-.014-.003l-.01-.002-.012-.001h-.012l-.008-.001h-.836a.232.232 0 0 0-.232.231v5.185c0 .127.104.23.232.23h.836a.232.232 0 0 0 .233-.23v-3.08l2.382 3.213a.224.224 0 0 0 .094.077l.01.004.008.003a.19.19 0 0 0 .016.005h.003a.219.219 0 0 0 .06.009h.835a.232.232 0 0 0 .232-.231V19.29a.232.232 0 0 0-.232-.231M19.55 23.408h-2.108V19.29c0-.127-.097-.231-.215-.231h-.776c-.12 0-.216.104-.216.231v5.184a.24.24 0 0 0 .06.16l.003.004.004.003c.038.04.09.065.148.065h3.1c.118 0 .215-.104.215-.232v-.834c0-.128-.097-.232-.215-.232M31.55 20.357c.118 0 .215-.104.215-.232v-.834c0-.128-.097-.232-.215-.232h-3.1a.207.207 0 0 0-.15.065l-.002.003-.003.004a.24.24 0 0 0-.06.16v5.183c0 .063.023.119.06.16l.003.004.004.003c.038.04.09.065.148.065h3.1c.118 0 .215-.104.215-.232v-.834c0-.128-.097-.232-.215-.232h-2.108v-.877h2.108c.118 0 .215-.103.215-.231v-.835c0-.128-.097-.232-.215-.232h-2.108v-.876h2.108z"/>
    </g>
</svg>
