<svg xmlns="http://www.w3.org/2000/svg" width="24" height="24" viewBox="0 0 24 24">
    <g fill="none" fill-rule="nonzero">
        <path fill="#FFF" d="M0 0h23.9v23.9H0z" opacity=".01"/>
        <path fill="#37A0F4" d="M18.19 21.95H5.69a.765.765 0 0 1-.74-.76V3.79c0-.422.343-.765.765-.765h12.5a.76.76 0 0 1 .735.765v17.4c0 .42-.34.76-.76.76zM5.69 3.525a.265.265 0 0 0-.265.265v17.4a.26.26 0 0 0 .265.26h12.5a.26.26 0 0 0 .26-.26V3.79a.26.26 0 0 0-.26-.265H5.69z"/>
        <path fill="#37A0F4" d="M14.43 4.54H9.47a.5.5 0 0 1-.5-.5v-1h6v1a.5.5 0 0 1-.54.5zm-4.965-1v.5h4.965v-.5H9.465z"/>
        <path fill="#37A0F4" d="M10.585 3.37l-.46-.19a1.97 1.97 0 0 1 3.65 0l-.46.19a1.5 1.5 0 0 0-1.365-.92c-.6 0-1.14.363-1.365.92zM16.595 19.42h-9.29a.5.5 0 0 1-.5-.5V6.055a.5.5 0 0 1 .5-.5h9.29a.5.5 0 0 1 .5.5V18.92a.5.5 0 0 1-.5.5zM7.305 6.055V18.92h9.29V6.055h-9.29z"/>
        <path fill="#37A0F4" d="M8.625 8.39h4.19a.25.25 0 1 0 0-.5h-4.19a.25.25 0 1 0 0 .5zM8.625 9.84h6.65a.25.25 0 1 0 0-.5h-6.65a.25.25 0 1 0 0 .5zM8.625 11.29H10.5a.25.25 0 1 0 0-.5H8.625a.25.25 0 1 0 0 .5zM11.615 11.29h3.66a.25.25 0 1 0 0-.5h-3.66a.25.25 0 1 0 0 .5zM8.625 12.74h5.91a.25.25 0 1 0 0-.5h-5.91a.25.25 0 1 0 0 .5zM15.275 12.74a.25.25 0 1 0 0-.5.25.25 0 0 0 0 .5zM8.625 14.185H10.5a.25.25 0 1 0 0-.5H8.625a.25.25 0 1 0 0 .5zM12.085 14.185h3.19a.25.25 0 1 0 0-.5h-3.19a.25.25 0 1 0 0 .5zM8.625 15.635h5a.25.25 0 1 0 0-.5h-5a.25.25 0 1 0 0 .5zM14.535 15.635h.74a.25.25 0 1 0 0-.5h-.74a.25.25 0 1 0 0 .5zM8.625 17.085h3.46a.25.25 0 1 0 0-.5h-3.46a.25.25 0 1 0 0 .5z"/>
    </g>
</svg>
