<svg xmlns="http://www.w3.org/2000/svg" width="24" height="24" viewBox="0 0 24 24">
    <g fill="none" fill-rule="nonzero">
        <path fill="#FFF" d="M0 0h23.98v23.98H0z" opacity=".01"/>
        <path fill="#37A0F4" d="M10.625 3.41l-.46-.19a1.97 1.97 0 0 1 3.65 0l-.46.19A1.5 1.5 0 0 0 12 2.5a1.47 1.47 0 0 0-1.375.91z"/>
        <rect width="13.5" height="18.425" x="5.24" y="3.315" fill="#37A0F4" rx="1.03"/>
        <path fill="#FFF" d="M18.225 22H5.755A.766.766 0 0 1 5 21.225v-17.4a.765.765 0 0 1 .765-.76h12.46a.76.76 0 0 1 .775.76v17.4a.76.76 0 0 1-.775.775zM5.755 3.565a.26.26 0 0 0-.265.26v17.4c0 .146.119.265.265.265h12.47a.265.265 0 0 0 .265-.265v-17.4a.26.26 0 0 0-.265-.26H5.755z"/>
        <path fill="#FFF" d="M14.47 4.58H9.5a.5.5 0 0 1-.5-.5v-1h6v1a.5.5 0 0 1-.53.5zM9.5 3.565v.5h4.97v-.5H9.5zM16.635 19.46h-9.29a.5.5 0 0 1-.5-.5V6.095a.5.5 0 0 1 .5-.5h9.29a.5.5 0 0 1 .5.5V18.96a.5.5 0 0 1-.5.5zM7.345 6.095V18.96h9.29V6.095h-9.29z"/>
        <path fill="#FFF" d="M8.665 8.43h4.185a.25.25 0 1 0 0-.5H8.665a.25.25 0 1 0 0 .5zM8.665 9.88h6.65a.25.25 0 1 0 0-.5h-6.65a.25.25 0 1 0 0 .5zM8.665 11.33h1.865a.25.25 0 1 0 0-.5H8.665a.25.25 0 1 0 0 .5zM11.655 11.33h3.66a.25.25 0 1 0 0-.5h-3.66a.25.25 0 1 0 0 .5zM8.665 12.775h5.91a.25.25 0 1 0 0-.5h-5.91a.25.25 0 1 0 0 .5zM15.315 12.775a.25.25 0 1 0 0-.5.25.25 0 0 0 0 .5zM8.665 14.225h1.865a.25.25 0 1 0 0-.5H8.665a.25.25 0 1 0 0 .5zM12.125 14.225h3.19a.25.25 0 1 0 0-.5h-3.19a.25.25 0 1 0 0 .5zM8.665 15.675h5a.25.25 0 1 0 0-.5h-5a.25.25 0 1 0 0 .5zM14.575 15.675h.74a.25.25 0 1 0 0-.5h-.74a.25.25 0 1 0 0 .5zM8.665 17.125h3.46a.25.25 0 1 0 0-.5h-3.46a.25.25 0 1 0 0 .5z"/>
    </g>
</svg>
