<svg xmlns="http://www.w3.org/2000/svg" width="24" height="24" viewBox="0 0 24 24">
    <g fill="none" fill-rule="nonzero">
        <path fill="#FED330" d="M12 20.615a8.63 8.63 0 0 1-7.62-12.69.375.375 0 0 1 .5-.15.37.37 0 0 1 .15.5 7.885 7.885 0 1 0 1.06-1.5.375.375 0 1 1-.56-.5A8.625 8.625 0 1 1 12 20.615z"/>
        <path fill="#FED330" d="M12 17.84a5.855 5.855 0 0 1-5.335-8.28.376.376 0 1 1 .685.31 5.085 5.085 0 1 0 .83-1.275.375.375 0 1 1-.56-.5A5.85 5.85 0 1 1 12 17.84z"/>
        <path fill="#FED330" d="M12 15.45A3.47 3.47 0 0 1 8.53 12c.003-.286.038-.572.105-.85a.38.38 0 0 1 .455-.27.375.375 0 0 1 .275.455A2.71 2.71 0 1 0 12 9.28a2.725 2.725 0 0 0-2 .9.375.375 0 1 1-.555-.5A3.46 3.46 0 1 1 12 15.45z"/>
        <path fill="#FED330" d="M12 13.82a1.845 1.845 0 0 1-1.825-1.55.375.375 0 0 1 .31-.43.38.38 0 0 1 .43.31 1.105 1.105 0 1 0 .26-.91.38.38 0 0 1-.53.035.375.375 0 0 1-.03-.53A1.85 1.85 0 1 1 12 13.82z"/>
        <path fill="#EB4E3B" d="M12.19 11.79c-2.065-1.815-3.905-3.6-5.97-5.42-.24-.21-.595.14-.355.355 2.065 1.815 3.905 3.6 5.97 5.42.24.21.595-.14.355-.355z"/>
        <path fill="#EB4E3B" d="M12 12.46a.5.5 0 0 1-.335-.125c-1.035-.915-2.03-1.83-3-2.715-.97-.885-1.95-1.8-3-2.71a.455.455 0 0 1-.155-.44.535.535 0 0 1 .345-.39.5.5 0 0 1 .5.1c1.035.915 2.025 1.83 3 2.715.975.885 1.95 1.8 3 2.71a.455.455 0 0 1 .155.44.53.53 0 0 1-.51.415z"/>
        <path fill="#FFF" d="M0 0h23.98v23.98H0z" opacity=".01"/>
    </g>
</svg>
