<svg xmlns="http://www.w3.org/2000/svg" width="24" height="24" viewBox="0 0 24 24">
    <g fill="none" fill-rule="nonzero">
        <path fill="#37A0F4" d="M15.95 22H8.035A1 1 0 0 1 7 21.025l.085-8.5a11.915 11.915 0 0 1 1.155-5.13c.15-.31.315-.62.5-.925a13.36 13.36 0 0 1 1.715-2.31.195.195 0 0 0 .05-.13V2.96h3v1.07c0 .049.02.096.055.13a13.28 13.28 0 0 1 2.315 3.47 11.77 11.77 0 0 1 1.04 4.845l.085 8.55a1 1 0 0 1-1.05.975zM11 3.46v.57a.66.66 0 0 1-.2.47 13.385 13.385 0 0 0-1.65 2.23c-.17.29-.325.585-.47.885a11.5 11.5 0 0 0-1.105 4.92l-.085 8.5a.5.5 0 0 0 .545.46h7.915a.5.5 0 0 0 .55-.47l-.095-8.525a11.28 11.28 0 0 0-1.215-5.09 12.64 12.64 0 0 0-2-2.885.695.695 0 0 1-.19-.495v-.57h-2z"/>
        <path fill="#37A0F4" d="M13.63 3.46h-3.28A.455.455 0 0 1 9.895 3v-.55A.46.46 0 0 1 10.35 2h3.28a.46.46 0 0 1 .46.46V3a.46.46 0 0 1-.46.46zm-3.235-.5h3.195V2.5h-3.195v.46zM10.45 17.21H7.325v-.5h3.05v-3.97h-3.05v-.5h3.125a.465.465 0 0 1 .43.5v4a.46.46 0 0 1-.43.47z"/>
        <path fill="#37A0F4" d="M7.325 14.225h2.07a.25.25 0 1 0 0-.5h-2.07a.25.25 0 1 0 0 .5zM7.325 15.725h1.45a.25.25 0 1 0 0-.5h-1.45a.25.25 0 1 0 0 .5z"/>
        <path fill="#FFF" d="M0 0h23.98v23.98H0z" opacity=".01"/>
    </g>
</svg>
