<svg xmlns="http://www.w3.org/2000/svg" width="24" height="24" viewBox="0 0 24 24">
    <g fill="none" fill-rule="nonzero">
        <path fill="#FFF" d="M0 0h23.98v23.98H0z" opacity=".01"/>
        <path fill="#37A0F4" d="M21.74 12c-.006 5.385-4.375 9.746-9.76 9.74-5.385-.006-9.746-4.375-9.74-9.76.006-5.385 4.375-9.746 9.76-9.74A9.765 9.765 0 0 1 21.74 12"/>
        <path fill="#FFF" d="M12 6.77a4.545 4.545 0 0 0-4.585 4.5v6.46H7.6a3 3 0 0 0 2.9-2.815V11.27a1.5 1.5 0 0 1 1.525-1.5h1.525v1.5a1.5 1.5 0 0 1-1.53 1.5h-.765v3H12a4.54 4.54 0 0 0 4.585-4.5v-4.5H12z"/>
    </g>
</svg>
