<svg xmlns="http://www.w3.org/2000/svg" width="24" height="24" viewBox="0 0 24 24">
    <g fill="none" fill-rule="nonzero">
        <path fill="#37A0F4" d="M12 22C6.477 22 2 17.523 2 12S6.477 2 12 2s10 4.477 10 10-4.477 10-10 10zm0-19.5a9.5 9.5 0 1 0 0 19 9.5 9.5 0 0 0 0-19z"/>
        <path fill="#37A0F4" d="M7.435 17.92H7.25v-6.65A4.73 4.73 0 0 1 12 6.585h4.775v4.685A4.74 4.74 0 0 1 12 15.96h-.95v-3.375H12a1.33 1.33 0 0 0 1.34-1.315V9.96H12a1.33 1.33 0 0 0-1.34 1.31v3.645a3.18 3.18 0 0 1-3.05 3l-.175.005zM12 6.96a4.36 4.36 0 0 0-4.395 4.31v6.275a2.81 2.81 0 0 0 2.68-2.64V11.27A1.7 1.7 0 0 1 12 9.585h1.715v1.685A1.705 1.705 0 0 1 12 12.96h-.555v2.625H12a4.365 4.365 0 0 0 4.4-4.315V6.96H12z"/>
        <path fill="#FFF" d="M0 0h23.98v23.98H0z" opacity=".01"/>
    </g>
</svg>
