<svg xmlns="http://www.w3.org/2000/svg" width="24" height="24" viewBox="0 0 24 24">
    <g fill="none" fill-rule="nonzero">
        <path fill="#FFF" d="M0 0h23.98v23.98H0z" opacity=".01"/>
        <path fill="#37A0F4" d="M13.245 4.025a.435.435 0 0 0 .12.305c.816.881 1.508 1.87 2.055 2.94l.22.46c.66 1.495 1 3.111 1 4.745l.08 8.55a.755.755 0 0 1-.79.715H8.035a.76.76 0 0 1-.795-.715c.03-2.83.058-5.663.085-8.5a11.74 11.74 0 0 1 1.13-5c.14-.293.307-.593.5-.9a13.445 13.445 0 0 1 1.68-2.27.43.43 0 0 0 .12-.3V3.21h2.5l-.01.815z"/>
        <path fill="#37A0F4" d="M15.95 22H8.035A1 1 0 0 1 7 21.025l.085-8.5c0-1.773.394-3.524 1.155-5.125.15-.315.315-.625.5-.925a13.555 13.555 0 0 1 1.715-2.31.195.195 0 0 0 .05-.13V2.96h3v1.065a.18.18 0 0 0 .055.135 13.28 13.28 0 0 1 2.315 3.47 11.77 11.77 0 0 1 1.04 4.845l.085 8.55a1 1 0 0 1-1.05.975zM11 3.46v.57a.685.685 0 0 1-.2.47 13.385 13.385 0 0 0-1.65 2.23c-.17.29-.325.585-.47.885a11.5 11.5 0 0 0-1.105 4.915l-.085 8.5a.5.5 0 0 0 .545.46h7.915a.5.5 0 0 0 .55-.465l-.095-8.525a11.28 11.28 0 0 0-1.215-5.09 12.64 12.64 0 0 0-2-2.885.7.7 0 0 1-.19-.5V3.46h-2z"/>
        <rect width="3.695" height="1" x="10.145" y="2.24" fill="#37A0F4" rx=".42"/>
        <path fill="#37A0F4" d="M13.63 3.46h-3.28A.455.455 0 0 1 9.895 3v-.55A.46.46 0 0 1 10.35 2h3.28a.46.46 0 0 1 .46.46V3a.46.46 0 0 1-.46.46zm-3.235-.5h3.195V2.5h-3.195v.46zM7.325 12.5h4.32a.25.25 0 0 1 .25.25v3.97a.25.25 0 0 1-.25.25h-4.32"/>
        <path fill="#FFF" d="M11.645 17.21h-4.32a.25.25 0 0 1 0-.5h4.32v-3.97h-4.32a.25.25 0 1 1 0-.5h4.32a.5.5 0 0 1 .5.5v4a.5.5 0 0 1-.5.47z"/>
        <path fill="#37A0F4" d="M7.325 13.975h2.9"/>
        <path fill="#FFF" d="M7.325 14.225h2.9a.25.25 0 1 0 0-.5h-2.9a.25.25 0 1 0 0 .5z"/>
        <path fill="#37A0F4" d="M7.325 15.475H9.61"/>
        <path fill="#FFF" d="M7.325 15.725H9.61a.25.25 0 1 0 0-.5H7.325a.25.25 0 1 0 0 .5z"/>
    </g>
</svg>
