<svg xmlns="http://www.w3.org/2000/svg" width="24" height="24" viewBox="0 0 24 24">
    <g fill="none" fill-rule="nonzero">
        <path fill="#FFF" d="M0 0h23.98v23.98H0z" opacity=".01"/>
        <circle cx="10.26" cy="8.49" r="2.5" fill="#37A0F4"/>
        <path fill="#37A0F4" d="M10.26 11.24a2.75 2.75 0 1 1-.02-5.5 2.75 2.75 0 0 1 .02 5.5zm0-5a2.25 2.25 0 1 0-.02 4.5 2.25 2.25 0 0 0 .02-4.5zM3.74 18h13.04a.66.66 0 0 0 .72-.8 6 6 0 0 0-2.395-3.315 7.23 7.23 0 0 0-1.41-.75 9.14 9.14 0 0 0-6.885.06 7.3 7.3 0 0 0-1.53.865 6.095 6.095 0 0 0-2.235 3.135.66.66 0 0 0 .695.805z"/>
        <path fill="#37A0F4" d="M16.78 18.24H3.74a1 1 0 0 1-.815-.39.805.805 0 0 1-.13-.725 6.335 6.335 0 0 1 2.32-3.27 7.865 7.865 0 0 1 1.58-.89 9.425 9.425 0 0 1 7.08-.06 7.745 7.745 0 0 1 1.46.775 6.18 6.18 0 0 1 2.5 3.45.82.82 0 0 1-.14.725 1 1 0 0 1-.815.385zm-6.465-5.5a8.755 8.755 0 0 0-3.42.68 7 7 0 0 0-1.5.835 5.83 5.83 0 0 0-2.145 3 .315.315 0 0 0 .055.28.5.5 0 0 0 .415.19h13.06a.5.5 0 0 0 .405-.185.31.31 0 0 0 .06-.29 5.715 5.715 0 0 0-2.295-3.175 7.32 7.32 0 0 0-1.365-.725 8.76 8.76 0 0 0-3.27-.605v-.005z"/>
        <ellipse cx="17.645" cy="10.315" fill="#37A0F4" rx="1.155" ry="1.2"/>
        <path fill="#37A0F4" d="M17.645 11.76a1.45 1.45 0 1 1 1.4-1.445 1.43 1.43 0 0 1-1.4 1.445zm0-2.395a.95.95 0 1 0 .9.95.93.93 0 0 0-.9-.95zM17.095 14.755a.24.24 0 0 0 .205.11h3.35A.315.315 0 0 0 21 14.5a2.88 2.88 0 0 0-1.105-1.585 3.37 3.37 0 0 0-.655-.36 4.07 4.07 0 0 0-3.175.025 3.77 3.77 0 0 0-.705.415 6.27 6.27 0 0 1 1.095.92c.238.26.453.541.64.84z"/>
        <path fill="#37A0F4" d="M20.65 15.115H17.3a.5.5 0 0 1-.415-.225 5.68 5.68 0 0 0-1.68-1.7.245.245 0 0 1 0-.405 3.5 3.5 0 0 1 .755-.445 4.345 4.345 0 0 1 3.375-.03c.246.103.481.232.7.385a3.12 3.12 0 0 1 1.2 1.725.5.5 0 0 1-.095.465.59.59 0 0 1-.49.23zm-3.345-.5l-.21.135.21-.135zm0 0h3.345a.11.11 0 0 0 .08-.03 2.53 2.53 0 0 0-1-1.5 2.965 2.965 0 0 0-.6-.33 3.83 3.83 0 0 0-3 .025c-.125.06-.25.12-.365.19a6.23 6.23 0 0 1 1.525 1.63l.015.015z"/>
    </g>
</svg>
