<svg xmlns="http://www.w3.org/2000/svg" width="24" height="24" viewBox="0 0 24 24">
    <g fill="none" fill-rule="nonzero">
        <path fill="#37A0F4" d="M10.2 11.21a2.825 2.825 0 1 1-.05-5.65 2.825 2.825 0 0 1 .05 5.65zm0-5.15a2.325 2.325 0 1 0-.05 4.65 2.325 2.325 0 0 0 .05-4.65zM16.91 18.42H3.5a1.04 1.04 0 0 1-.84-.42.835.835 0 0 1-.135-.74 6.53 6.53 0 0 1 2.39-3.36A7.595 7.595 0 0 1 6.54 13a9.665 9.665 0 0 1 7.275-.06c.528.21 1.03.48 1.5.8a6.4 6.4 0 0 1 2.565 3.545.865.865 0 0 1-.145.745 1.03 1.03 0 0 1-.825.39zm-6.655-5.66a9.08 9.08 0 0 0-3.5.7 7.33 7.33 0 0 0-1.525.86A6.03 6.03 0 0 0 3 17.425a.325.325 0 0 0 .055.295.54.54 0 0 0 .435.2h13.42a.5.5 0 0 0 .425-.195.34.34 0 0 0 .06-.305 5.9 5.9 0 0 0-2.365-3.27 7.31 7.31 0 0 0-1.405-.75 8.955 8.955 0 0 0-3.37-.64zM17.8 11.745a1.5 1.5 0 1 1 1.435-1.5 1.46 1.46 0 0 1-1.435 1.5zm0-2.465a1 1 0 1 0 .935 1 .96.96 0 0 0-.935-1zM20.895 15.2h-3.59a.25.25 0 0 1-.25-.25.255.255 0 0 1 .25-.25h3.59a.105.105 0 0 0 .085-.035 2.58 2.58 0 0 0-1.035-1.535 3.33 3.33 0 0 0-.62-.345 3.94 3.94 0 0 0-3.07.03c-.24.102-.465.235-.67.395a.245.245 0 0 1-.35-.045.25.25 0 0 1 .04-.35 3.73 3.73 0 0 1 .78-.46 4.455 4.455 0 0 1 3.445-.03c.254.106.496.24.72.4a3.19 3.19 0 0 1 1.25 1.775.54.54 0 0 1-.095.5.595.595 0 0 1-.48.2z"/>
        <path fill="#FFF" d="M0 0h23.98v23.98H0z" opacity=".01"/>
    </g>
</svg>
