<?xml version="1.0" encoding="UTF-8"?>
<svg width="66px" height="66px" viewBox="0 0 66 66" version="1.1" xmlns="http://www.w3.org/2000/svg" xmlns:xlink="http://www.w3.org/1999/xlink">
    <!-- Generator: Sketch 46.2 (44496) - http://www.bohemiancoding.com/sketch -->
    <title>ic_realtime</title>
    <desc>Created with Sketch.</desc>
    <defs></defs>
    <g id="Main-Pages" stroke="none" stroke-width="1" fill="none" fill-rule="evenodd">
        <g id="Store-Owners/Brands-page" transform="translate(-179.000000, -1802.000000)">
            <g id="1" transform="translate(135.000000, 1747.000000)">
                <g id="ic_realtime" transform="translate(44.000000, 55.000000)">
                    <circle id="BG" fill="#E3E5E8" cx="33" cy="33" r="33"></circle>
                    <path d="M37,19.5 C37,21.432 35.432,23 33.5,23 C31.568,23 30,21.432 30,19.5 C30,17.568 31.568,16 33.5,16 C35.432,16 37,17.568 37,19.5 Z M36.8,25 C38.0144,25 39,25.9706667 39,27.1666667 L39,38 L36.8,38 L36.8,51 L34.05,51 L34.05,38 L32.95,38 L32.95,51 L30.2,51 L30.2,38 L28,38 L28,27.1666667 C28,25.9706667 28.9834,25 30.2,25 L36.8,25 Z M51,19.5 C51,21.432 49.432,23 47.5,23 C45.568,23 44,21.432 44,19.5 C44,17.568 45.568,16 47.5,16 C49.432,16 51,17.568 51,19.5 Z M50.8,25 C52.0144,25 53,25.9706667 53,27.1666667 L53,38 L50.8,38 L50.8,51 L48.05,51 L48.05,38 L46.95,38 L46.95,51 L44.2,51 L44.2,38 L42,38 L42,27.1666667 C42,25.9706667 42.9834,25 44.2,25 L50.8,25 Z M23,19.5 C23,21.432 21.432,23 19.5,23 C17.568,23 16,21.432 16,19.5 C16,17.568 17.568,16 19.5,16 C21.432,16 23,17.568 23,19.5 Z M22.8,25 C24.0144,25 25,25.9706667 25,27.1666667 L25,38 L22.8,38 L22.8,51 L20.05,51 L20.05,38 L18.95,38 L18.95,51 L16.2,51 L16.2,38 L14,38 L14,27.1666667 C14,25.9706667 14.9834,25 16.2,25 L22.8,25 Z" id="Combined-Shape" fill="#4A4A4A"></path>
                </g>
            </g>
        </g>
    </g>
</svg>