<svg xmlns="http://www.w3.org/2000/svg" xmlns:xlink="http://www.w3.org/1999/xlink" width="66" height="66" viewBox="0 0 66 66">
    <defs>
        <path id="a" d="M0 0h41v31.928H0z"/>
    </defs>
    <g fill="none" fill-rule="evenodd">
        <circle cx="33" cy="33" r="33" fill="#E3E5E8"/>
        <g transform="translate(13 17)">
            <mask id="b" fill="#fff">
                <use xlink:href="#a"/>
            </mask>
            <path d="M0 0h41v31.928H0z" mask="url(#b)"/>
        </g>
        <path fill="#4A4A4A" d="M49.2 18H18.8c-2.09 0-3.8 1.687-3.8 3.75v22.5c0 2.063 1.71 3.75 3.8 3.75h30.4c2.09 0 3.8-1.687 3.8-3.75v-22.5c.002-2.063-1.708-3.75-3.8-3.75zm0 26.25H18.8v-22.5h30.4v22.5zm-17.099-7.312H22.6v3.375H32.1v-3.375zm0-5.626H22.6v3.374H32.1v-3.374zm0-5.625H22.6v3.375H32.1v-3.375zm13.11 12.001s-3.23-.833-3.23-2.471c0-1.56 2.09-2.218 2.09-5.405 0-2.59-.799-4.127-3.42-4.127-2.624 0-3.42 1.538-3.42 4.127 0 3.187 2.09 3.842 2.09 5.405 0 1.636-3.23 2.471-3.23 2.471-.19 0-.19 2.625-.19 2.625h9.501c-.002 0-.002-2.625-.192-2.625z"/>
    </g>
</svg>
