<svg xmlns="http://www.w3.org/2000/svg" xmlns:xlink="http://www.w3.org/1999/xlink" width="111" height="111" viewBox="0 0 111 111">
    <defs>
        <circle id="b" cx="42.5" cy="42.5" r="42.5"/>
        <filter id="a" width="167.6%" height="167.6%" x="-33.8%" y="-26.8%" filterUnits="objectBoundingBox">
            <feMorphology in="SourceAlpha" operator="dilate" radius="1.25" result="shadowSpreadOuter1"/>
            <feOffset dy="3" in="shadowSpreadOuter1" result="shadowOffsetOuter1"/>
            <feMorphology in="SourceAlpha" radius="1.25" result="shadowInner"/>
            <feOffset dy="3" in="shadowInner" result="shadowInner"/>
            <feComposite in="shadowOffsetOuter1" in2="shadowInner" operator="out" result="shadowOffsetOuter1"/>
            <feGaussianBlur in="shadowOffsetOuter1" result="shadowBlurOuter1" stdDeviation="4"/>
            <feColorMatrix in="shadowBlurOuter1" result="shadowMatrixOuter1" values="0 0 0 0 0 0 0 0 0 0 0 0 0 0 0 0 0 0 0.12 0"/>
            <feMorphology in="SourceAlpha" operator="dilate" radius="1.25" result="shadowSpreadOuter2"/>
            <feOffset dy="3" in="shadowSpreadOuter2" result="shadowOffsetOuter2"/>
            <feMorphology in="SourceAlpha" radius="1.25" result="shadowInner"/>
            <feOffset dy="3" in="shadowInner" result="shadowInner"/>
            <feComposite in="shadowOffsetOuter2" in2="shadowInner" operator="out" result="shadowOffsetOuter2"/>
            <feGaussianBlur in="shadowOffsetOuter2" result="shadowBlurOuter2" stdDeviation="6"/>
            <feColorMatrix in="shadowBlurOuter2" result="shadowMatrixOuter2" values="0 0 0 0 0 0 0 0 0 0 0 0 0 0 0 0 0 0 0.06 0"/>
            <feMerge>
                <feMergeNode in="shadowMatrixOuter1"/>
                <feMergeNode in="shadowMatrixOuter2"/>
            </feMerge>
        </filter>
        <filter id="c" width="160%" height="167.5%" x="-30%" y="-26.2%" filterUnits="objectBoundingBox">
            <feOffset dy="3" in="SourceAlpha" result="shadowOffsetOuter1"/>
            <feGaussianBlur in="shadowOffsetOuter1" result="shadowBlurOuter1" stdDeviation="4"/>
            <feColorMatrix in="shadowBlurOuter1" result="shadowMatrixOuter1" values="0 0 0 0 0 0 0 0 0 0 0 0 0 0 0 0 0 0 0.12 0"/>
            <feMerge>
                <feMergeNode in="shadowMatrixOuter1"/>
                <feMergeNode in="SourceGraphic"/>
            </feMerge>
        </filter>
    </defs>
    <g fill="none" fill-rule="evenodd">
        <g transform="translate(13 10)">
            <use fill="#000" filter="url(#a)" xlink:href="#b"/>
            <use stroke="#FFF" stroke-width="2.5" xlink:href="#b"/>
        </g>
        <g filter="url(#c)" transform="translate(33 31)">
            <path fill="#FFF" d="M1 23.154v15.16c0 .76.6 1.378 1.344 1.378h40.312c.742 0 1.344-.617 1.344-1.378v-15.16H1"/>
            <path fill="#EEE" d="M2.344 8.27C1.6 8.27 1 8.823 1 9.51L.26 22.263a1 1 0 0 0 .826 1.044l21.324 3.707a1 1 0 0 0 .343 0l21.323-3.705a1 1 0 0 0 .826-1.056L44 9.51c0-.686-.602-1.24-1.344-1.24H2.344zM28.348 0H17.479l-4.075 4.135h19.02L28.347 0"/>
            <path fill="#FFF" d="M28.348 8.27h4.075V4.134h-4.075zM13.404 8.27h4.075V4.134h-4.075z"/>
        </g>
    </g>
</svg>
