<svg xmlns="http://www.w3.org/2000/svg" width="66" height="66" viewBox="0 0 66 66">
    <g fill="none" fill-rule="evenodd">
        <circle cx="33" cy="33" r="33" fill="#E3E5E8"/>
        <path d="M17 17h32v32H17z"/>
        <path fill="#4A4A4A" d="M21.998 44.667a3.333 3.333 0 1 0 6.666 0 3.333 3.333 0 0 0-6.666 0zm16.67 0a3.333 3.333 0 1 0 6.666 0 3.333 3.333 0 0 0-6.667 0zm-10.756-7.88l18.447-5.27c.353-.103.641-.483.641-.85V21.5H23.5v-2.833c0-.367-.3-.667-.667-.667h-5.166c-.367 0-.667.3-.667.667v2.666h3.239l3.28 15.094.314 1.572v2.5c0 .367.3.667.667.667h21.833c.367 0 .667-.3.667-.667V38H28.254c-1.916.002-1.957-.749-.342-1.212z"/>
    </g>
</svg>
