<svg xmlns="http://www.w3.org/2000/svg" width="66" height="66" viewBox="0 0 66 66">
    <g fill="none" fill-rule="evenodd">
        <circle cx="33" cy="33" r="33" fill="#E3E5E8"/>
        <path d="M14 17h35v35H14z"/>
        <g fill="#4A4A4A" fill-rule="nonzero">
            <path d="M49 17.682A1.69 1.69 0 0 0 47.304 16H17.615a1.69 1.69 0 0 0-1.696 1.682c0 .622.343 1.158.848 1.449v19.373l1.696-1.537V19.364h27.992v18.5H24.593l-1.552 1.683h1.497l-3.05 11.338a1.68 1.68 0 0 0 1.203 2.058c.9.238 1.835-.294 2.076-1.192l3.058-11.365h9.268L40.15 51.75a1.695 1.695 0 0 0 2.076 1.192 1.682 1.682 0 0 0 1.203-2.058l-3.05-11.339h6.925a.844.844 0 0 0 .847-.84V19.13A1.67 1.67 0 0 0 49 17.682z"/>
            <path d="M32.46 33.815v-6.031c0-.888-.618-1.609-1.379-1.609-.76 0-1.378.72-1.378 1.609v6.031c0 .89.617 1.61 1.378 1.61.76 0 1.378-.721 1.378-1.61zM37.973 34.65V22.325c0-.94-.618-1.7-1.38-1.7-.76 0-1.377.76-1.377 1.7V34.65c0 .94.618 1.7 1.379 1.7.76 0 1.378-.761 1.378-1.7zM43.486 35.488V26.11c0-.987-.617-1.786-1.378-1.786-.76 0-1.378.8-1.378 1.786v9.377c0 .988.617 1.787 1.378 1.787.761 0 1.378-.8 1.378-1.787zM27.74 30.926a.428.428 0 0 0-.606 0s-11.743 10.806-11.8 10.863a1.155 1.155 0 0 0 0 1.624 1.135 1.135 0 0 0 1.614 0c.056-.055 10.792-11.877 10.792-11.877a.435.435 0 0 0 0-.61z"/>
        </g>
    </g>
</svg>
