<svg xmlns="http://www.w3.org/2000/svg" width="66" height="66" viewBox="0 0 66 66">
    <g fill="none" fill-rule="evenodd">
        <circle cx="33" cy="33" r="33" fill="#E3E5E8"/>
        <path d="M15 15h37v37H15z"/>
        <path fill="#4A4A4A" d="M47.198 27.393c-3.222-7.573-8.407-13.34-11.032-12.263-4.453 1.829 2.656 10.613-19.223 19.596-1.89.776-2.368 3.882-1.579 5.738.79 1.856 3.375 3.703 5.265 2.93.327-.136 1.53-.526 1.53-.526 1.348 1.829 2.762.743 3.261 1.908.6 1.397 1.911 4.432 2.355 5.466.446 1.032 1.455 1.989 2.189 1.709.73-.28 3.218-1.238 4.172-1.603.951-.366 1.18-1.223.888-1.9-.315-.73-1.601-.942-1.967-1.793-.368-.852-1.566-3.575-1.911-4.433-.469-1.169.526-2.12 1.973-2.271 9.957-1.048 11.817 5.163 15.208 3.77 2.626-1.077 2.094-8.755-1.129-16.328zm-1.122 12.286c-.583.239-4.5-2.884-7.006-8.771-2.503-5.886-2.188-11.267-1.607-11.506.582-.238 4.404 3.527 6.908 9.413 2.505 5.886 2.289 10.623 1.705 10.864z"/>
    </g>
</svg>
