<svg xmlns="http://www.w3.org/2000/svg" width="42" height="42" viewBox="0 0 42 42">
    <g fill="none" fill-rule="evenodd" transform="translate(1 1)">
        <rect width="40" height="40" fill="#FFF" stroke="#FD9644" rx="8"/>
        <path fill="#FD9644" fill-rule="nonzero" d="M20.526 11.579c2.43 0 2.735.01 3.69.054.951.043 1.602.194 2.171.415a4.385 4.385 0 0 1 1.585 1.032c.497.498.804.997 1.031 1.585.221.569.374 1.22.417 2.172.043.955.054 1.26.054 3.69 0 2.429-.01 2.734-.054 3.689-.043.951-.195 1.602-.416 2.171a4.386 4.386 0 0 1-1.031 1.585 4.386 4.386 0 0 1-1.586 1.031c-.568.221-1.22.374-2.171.417-.955.043-1.26.054-3.69.054-2.43 0-2.734-.01-3.69-.054-.95-.043-1.601-.195-2.17-.416a4.386 4.386 0 0 1-1.585-1.031 4.385 4.385 0 0 1-1.032-1.586c-.22-.568-.373-1.22-.416-2.171-.044-.955-.054-1.26-.054-3.69 0-2.43.01-2.734.054-3.69.043-.95.194-1.601.415-2.17a4.385 4.385 0 0 1 1.032-1.585 4.385 4.385 0 0 1 1.585-1.032c.569-.22 1.22-.373 2.172-.416.955-.044 1.26-.054 3.69-.054zm0 1.613c-2.39 0-2.671.008-3.615.052-.872.04-1.347.184-1.662.308a2.756 2.756 0 0 0-1.028.67c-.314.312-.507.61-.67 1.027-.123.316-.268.79-.308 1.662-.042.944-.052 1.226-.052 3.615 0 2.39.01 2.672.052 3.616.04.872.185 1.346.309 1.661.162.418.355.716.67 1.029.312.313.61.507 1.027.67.316.122.79.267 1.662.307.943.043 1.226.053 3.615.053 2.39 0 2.673-.01 3.616-.053.872-.04 1.346-.185 1.661-.308a2.756 2.756 0 0 0 1.029-.67c.313-.312.507-.61.67-1.028.122-.316.267-.79.307-1.66.043-.945.053-1.227.053-3.617 0-2.39-.01-2.671-.053-3.615-.04-.872-.185-1.347-.308-1.662a2.772 2.772 0 0 0-.67-1.028 2.772 2.772 0 0 0-1.028-.67c-.316-.123-.79-.268-1.66-.308-.945-.042-1.227-.052-3.617-.052zm0 2.74a4.595 4.595 0 1 1 0 9.19 4.595 4.595 0 0 1 0-9.19zm0 7.576a2.982 2.982 0 1 0 0-5.964 2.982 2.982 0 0 0 0 5.964zm5.85-7.757a1.074 1.074 0 1 1-2.148 0 1.074 1.074 0 0 1 2.148 0z"/>
    </g>
</svg>
