<svg id="Layer_1" data-name="Layer 1" xmlns="http://www.w3.org/2000/svg" viewBox="0 0 48 48"><defs><style>.cls-1{fill:#fff;opacity:0;}.cls-2{fill:#37a0f4;}.cls-3{fill:#a5d4fa;}</style></defs><title>ic-struk</title><rect class="cls-1" width="48" height="48"/><path class="cls-2" d="M23.3,10.78l.9.9a1.69,1.69,0,0,0,2.3.09V34.35a5,5,0,0,0,1,3h-17a3,3,0,0,1-3-3V11.77a1.69,1.69,0,0,0,2.3-.09l.9-.9.9.9a1.69,1.69,0,0,0,2.4,0l.9-.9.9.9a1.69,1.69,0,0,0,2.4,0l.9-.9.9.9a1.69,1.69,0,0,0,2.4,0l.9-.9m0-1.13a.67.67,0,0,0-.49.21L21.69,11a.68.68,0,0,1-1,0L19.6,9.86a.7.7,0,0,0-.5-.21.67.67,0,0,0-.49.21L17.49,11a.68.68,0,0,1-1,0L15.39,9.86a.68.68,0,0,0-1,0L13.29,11a.68.68,0,0,1-1,0L11.19,9.86a.68.68,0,0,0-1,0L9.1,11a.7.7,0,0,1-.5.21A.67.67,0,0,1,8.11,11l-.76-.75A.49.49,0,0,0,7,10.07a.5.5,0,0,0-.5.5V34.35a4,4,0,0,0,4,4h20a4.07,4.07,0,0,0,.5,0,3.84,3.84,0,0,1-.51-.1,4,4,0,0,1-3-3.87V10.57a.5.5,0,0,0-.5-.5.49.49,0,0,0-.35.15l-.76.75a.68.68,0,0,1-1,0L23.79,9.86a.67.67,0,0,0-.49-.21Z"/><path class="cls-3" d="M30.49,37.84A3.51,3.51,0,0,1,27,34.34v-8.5h8.67A4.5,4.5,0,0,0,34,29.34v5a3.49,3.49,0,0,1-2.11,3.21,3.35,3.35,0,0,1-.95.27l-.44,0Z"/><path class="cls-2" d="M34.5,26.34a5,5,0,0,0-1,3v5a3,3,0,0,1-1.81,2.76,3.24,3.24,0,0,1-.81.22,2.42,2.42,0,0,1-.39,0,3,3,0,0,1-3-3v-8h7m3-1h-11v9a4,4,0,0,0,4,4h0a4.07,4.07,0,0,0,.5,0,3.9,3.9,0,0,0,1.09-.3,4,4,0,0,0,2.41-3.67v-5a4,4,0,0,1,3-3.87v-.13Z"/><polygon class="cls-2" points="37.28 33.67 37.26 33.7 37.3 33.7 37.28 33.67 37.28 33.67"/><path class="cls-2" d="M37.5,26.35h.3a3.12,3.12,0,0,1,2.7,3.16V31.3a1.76,1.76,0,0,0-1.12-.39,1.78,1.78,0,0,0-1.27.52l-.83.83-.9-.9a1.7,1.7,0,0,0-1.2-.5,1.57,1.57,0,0,0-.68.15V29.35a3,3,0,0,1,3-3m0-1a4,4,0,0,0-4,4v3.91l1.19-1.19a.68.68,0,0,1,1,0l1.12,1.11a.68.68,0,0,0,1,0l1-1a.82.82,0,0,1,1.14,0l.18.19a.83.83,0,0,0,.56.24.8.8,0,0,0,.81-.81V29.52a4.13,4.13,0,0,0-3.61-4.16Z"/><path class="cls-2" d="M10.51,15.31a.64.64,0,0,1,.33-.1l.37,0h.4a1.39,1.39,0,0,1,.88.3,1,1,0,0,1,.33.8,1,1,0,0,1-.16.58.91.91,0,0,1-.44.36l.64.86a.32.32,0,0,1,.08.22.26.26,0,0,1-.11.22.46.46,0,0,1-.26.1.27.27,0,0,1-.12,0,.18.18,0,0,1-.08-.06l-.09-.1L12,18l-.42-.6h-.5v.44c0,.22,0,.36,0,.43a.3.3,0,0,1-.29.34.49.49,0,0,1-.31-.07.36.36,0,0,1-.09-.28c0-.62,0-1.36,0-2.2v-.24c0-.11,0-.19,0-.24A.35.35,0,0,1,10.51,15.31Zm.57.48v1h.41A.83.83,0,0,0,12,16.7a.53.53,0,0,0,0-.78.7.7,0,0,0-.46-.13Z"/><path class="cls-2" d="M13.75,16.27a.26.26,0,0,1,.29.2v.17a.89.89,0,0,1,.3-.28.83.83,0,0,1,.41-.1,1,1,0,0,1,.79.33,1.24,1.24,0,0,1,.29.84,1.21,1.21,0,0,1-.33.87,1.12,1.12,0,0,1-.85.35.7.7,0,0,1-.58-.26v.38s0,.13,0,.27v.35c0,.22-.13.33-.38.33a.27.27,0,0,1-.31-.31V16.57C13.41,16.37,13.53,16.27,13.75,16.27ZM15,17a.46.46,0,0,0-.36-.16.54.54,0,0,0-.4.17.6.6,0,0,0-.16.44.64.64,0,0,0,.13.44.54.54,0,0,0,.4.16.5.5,0,0,0,.39-.18.65.65,0,0,0,.16-.46A.54.54,0,0,0,15,17Z"/><rect class="cls-2" x="17.98" y="16.67" width="6.36" height="1" rx="0.5" ry="0.5"/><rect class="cls-2" x="10.03" y="22.17" width="14.31" height="1" rx="0.5" ry="0.5"/><rect class="cls-2" x="10.03" y="26.67" width="14.31" height="1" rx="0.5" ry="0.5"/><rect class="cls-2" x="10.03" y="31.34" width="14.31" height="1" rx="0.5" ry="0.5"/></svg>