<svg id="Layer_1" data-name="Layer 1" xmlns="http://www.w3.org/2000/svg" viewBox="0 0 48 48"><defs><style>.cls-1,.cls-4{fill:#fff;}.cls-1{fill-opacity:0;}.cls-2{fill:#a5d4fa;}.cls-3{fill:#37a0f4;}</style></defs><title>add-orange copy 8</title><rect class="cls-1" width="48" height="48"/><path class="cls-2" d="M8,40.5a3.45,3.45,0,0,1-3.5-3.39V13.8A3.45,3.45,0,0,1,8,10.41h4a2,2,0,0,0,2-1.95,1,1,0,0,1,1-1H33a1,1,0,0,1,1,1,2,2,0,0,0,2,1.95h4a3.45,3.45,0,0,1,3.5,3.39V37.11A3.45,3.45,0,0,1,40,40.5ZM24,14.76a10.87,10.87,0,0,0-11,10.7,10.87,10.87,0,0,0,11,10.7,10.88,10.88,0,0,0,11-10.7A10.86,10.86,0,0,0,24,14.76Z"/><path class="cls-3" d="M15,8H33a.48.48,0,0,1,.49.47A2.48,2.48,0,0,0,36,10.91h4a3,3,0,0,1,3,2.89V37.11A2.94,2.94,0,0,1,40,40H8a3,3,0,0,1-3-2.89V13.8a3,3,0,0,1,3-2.89h4a2.48,2.48,0,0,0,2.48-2.46A.49.49,0,0,1,15,8m9,28.66h0a11.38,11.38,0,0,0,11.5-11.2A11.36,11.36,0,0,0,24,14.26a11.36,11.36,0,0,0-11.5,11.2A11.37,11.37,0,0,0,24,36.66M15,7a1.49,1.49,0,0,0-1.5,1.45h0A1.47,1.47,0,0,1,12,9.91H8A3.94,3.94,0,0,0,4,13.8V37.11A3.94,3.94,0,0,0,8,41H40a3.94,3.94,0,0,0,4-3.89V13.8a3.94,3.94,0,0,0-4-3.89H36a1.48,1.48,0,0,1-1.5-1.44h0A1.48,1.48,0,0,0,33,7H15Zm9,28.66a10.35,10.35,0,0,1-10.5-10.2A10.35,10.35,0,0,1,24,15.26a10.35,10.35,0,0,1,10.5,10.2A10.36,10.36,0,0,1,24,35.66Z"/><circle class="cls-2" cx="24" cy="25.5" r="6.5"/><circle class="cls-4" cx="21" cy="22.5" r="1.5"/><path class="cls-3" d="M35.5,13h3a1,1,0,0,1,1,1h0a1,1,0,0,1-1,1h-3a1,1,0,0,1-1-1h0A1,1,0,0,1,35.5,13Z"/></svg>