<svg id="Layer_1" data-name="Layer 1" xmlns="http://www.w3.org/2000/svg" viewBox="0 0 48 48"><defs><style>.cls-1,.cls-4{fill:#fff;}.cls-1{opacity:0;}.cls-2{fill:#a5d4fa;}.cls-3{fill:#37a0f4;}</style></defs><title>ic-coin</title><rect class="cls-1" width="48" height="48"/><path class="cls-2" d="M18.76,33.52a12.87,12.87,0,0,1-1.4-.24A10.15,10.15,0,0,1,18.77,33c.76-.1,1.74-.19,3-.26h0c1.28-.06,2.86-.1,4.81-.1h.43c1.7,0,3.11,0,4.28.1s2.34.15,3.11.26a10.62,10.62,0,0,1,1.45.27c-.36.09-.82.17-1.37.25a64.6,64.6,0,0,1-7.39.34h-.51A62.54,62.54,0,0,1,18.76,33.52Z"/><path class="cls-2" d="M37,34.09a.28.28,0,0,1,0,.09c0,.43-.68,1.3-9.87,1.35h-.51c-9.66,0-10.34-.93-10.38-1.35a.31.31,0,0,1,0-.09c0-.13,0-.36.51-.6v.65c.27.5,4.59.89,9.88.89h.51c4.93,0,8.91-.39,9.34-.85v-.71C37,33.71,37,34,37,34.09Z"/><path class="cls-3" d="M37.48,33.73c-.06-.25-.23-.49-.74-.72l-.27-.11c-.16,0-.35-.11-.58-.16h0c-.36-.09-.81-.17-1.36-.25a64.6,64.6,0,0,0-7.39-.34h-.51a62.54,62.54,0,0,0-7.86.35,12.63,12.63,0,0,0-1.39.24h0c-.24.06-.45.12-.62.18l-.23.09c-.78.34-.78.74-.78,1.08v.09c0,.81.38,1.85,10.89,1.85h.51c10.38-.05,10.38-1.1,10.38-1.94A1.46,1.46,0,0,0,37.48,33.73Zm-20.13-.45h0a12.87,12.87,0,0,0,1.4.24c.81-.1,1.84-.19,3-.25h0c1.42-.08,3.06-.12,4.81-.12h.51c1.51,0,2.93.05,4.19.12h0c1.24.06,2.32.15,3.17.26.55-.08,1-.16,1.37-.25s.42-.11.58-.16V34a.1.1,0,0,1,0,.08.12.12,0,0,1,0,.09c-.43.46-4.41.83-9.34.85h-.51c-5.29,0-9.61-.39-9.88-.89a.13.13,0,0,1,0-.1V33.1C16.91,33.16,17.11,33.22,17.35,33.28Z"/><path class="cls-2" d="M36.47,33.12v1.06c-.43.46-4.41.83-9.34.85h-.51c-5.29,0-9.61-.39-9.88-.89v-1c.17.06.37.12.61.18h0a12.87,12.87,0,0,0,1.4.24,62.54,62.54,0,0,0,7.86.35h.51a64.6,64.6,0,0,0,7.39-.34c.55-.08,1-.16,1.37-.25S36.31,33.17,36.47,33.12Z"/><path class="cls-4" d="M26.62,33.37c-10.39,0-10.39-1.09-10.39-1.45s0-1.44,10.39-1.44h.44c10,.05,10,1.06,10,1.44s0,1.4-9.88,1.45Z"/><path class="cls-3" d="M27.13,30h-.51c-10.89,0-10.89,1.12-10.89,1.94a.92.92,0,0,0,0,.16c0,.3.11.63.77.92l.23.09c.17.06.37.12.61.18h0a12.87,12.87,0,0,0,1.4.24,62.54,62.54,0,0,0,7.86.35h.51a64.6,64.6,0,0,0,7.39-.34c.55-.08,1-.16,1.37-.25s.42-.11.58-.16l.27-.11c.51-.23.68-.47.74-.72a1.46,1.46,0,0,0,0-.36C37.51,31.09,37.51,30,27.13,30Zm7.39,2.5c-.85.11-1.94.2-3.19.26s-2.69.11-4.2.12h-.51c-1.75,0-3.39,0-4.81-.12h0c-1.18-.06-2.21-.15-3-.25-1.27-.15-2-.36-2-.57,0-.52,4.43-.94,9.89-.94h.51c5.22,0,9.38.43,9.38.94C36.51,32.14,35.77,32.34,34.52,32.49Z"/><rect class="cls-3" x="15.73" y="32.09" width="1.01" height="2.09"/><rect class="cls-3" x="36.47" y="32.09" width="1.01" height="2.09"/><path class="cls-2" d="M22.17,31.14a12.87,12.87,0,0,1-1.4-.24,10.15,10.15,0,0,1,1.41-.27c.76-.1,1.74-.19,3-.26h0c1.28-.06,2.86-.1,4.81-.1h.43c1.7,0,3.11,0,4.28.1s2.34.15,3.11.26a10.62,10.62,0,0,1,1.45.27c-.36.09-.82.17-1.37.25a64.6,64.6,0,0,1-7.39.34H30A62.54,62.54,0,0,1,22.17,31.14Z"/><path class="cls-2" d="M40.42,31.71a.28.28,0,0,1,0,.09c0,.43-.68,1.3-9.87,1.35H30c-9.66,0-10.34-.93-10.38-1.35a.31.31,0,0,1,0-.09c0-.13,0-.36.51-.6v.65c.27.5,4.59.89,9.88.89h.51c4.93,0,8.91-.39,9.34-.85v-.71C40.42,31.33,40.42,31.57,40.42,31.71Z"/><path class="cls-3" d="M40.89,31.35c-.06-.25-.23-.49-.74-.72l-.27-.11c-.16-.05-.35-.11-.58-.16h0c-.36-.09-.81-.17-1.36-.25a64.6,64.6,0,0,0-7.39-.34H30a62.54,62.54,0,0,0-7.86.35,12.63,12.63,0,0,0-1.39.24h0c-.24.06-.45.12-.62.18l-.23.09c-.78.34-.78.74-.78,1.08v.09c0,.81.38,1.85,10.89,1.85h.51c10.38,0,10.38-1.1,10.38-1.94A1.46,1.46,0,0,0,40.89,31.35ZM20.76,30.9h0a12.87,12.87,0,0,0,1.4.24c.81-.1,1.84-.19,3-.25h0c1.42-.08,3.06-.12,4.81-.12h.51c1.51,0,2.93.05,4.19.12h0c1.24.06,2.32.15,3.17.26.55-.08,1-.16,1.37-.25s.42-.11.58-.16v.89a.1.1,0,0,1,0,.08.12.12,0,0,1,0,.09c-.43.46-4.41.83-9.34.85H30c-5.29,0-9.61-.39-9.88-.89a.13.13,0,0,1,0-.1v-.94C20.32,30.78,20.52,30.84,20.76,30.9Z"/><path class="cls-2" d="M39.88,30.74V31.8c-.43.46-4.41.83-9.34.85H30c-5.29,0-9.61-.39-9.88-.89v-1c.17.06.37.12.61.18h0a12.87,12.87,0,0,0,1.4.24,62.54,62.54,0,0,0,7.86.35h.51a64.6,64.6,0,0,0,7.39-.34c.55-.08,1-.16,1.37-.25S39.72,30.79,39.88,30.74Z"/><path class="cls-4" d="M30,31c-10.39,0-10.39-1.09-10.39-1.45s0-1.44,10.39-1.44h.44c10,0,10,1.06,10,1.44s0,1.4-9.88,1.45Z"/><path class="cls-3" d="M30.54,27.61H30c-10.89,0-10.89,1.12-10.89,1.94a.92.92,0,0,0,0,.16c0,.3.11.63.77.92l.23.09c.17.06.37.12.61.18h0a12.87,12.87,0,0,0,1.4.24,62.54,62.54,0,0,0,7.86.35h.51a64.6,64.6,0,0,0,7.39-.34c.55-.08,1-.16,1.37-.25s.42-.11.58-.16l.27-.11c.51-.23.68-.47.74-.72a1.46,1.46,0,0,0,0-.36C40.92,28.71,40.92,27.66,30.54,27.61Zm7.39,2.5c-.85.11-1.94.2-3.19.26s-2.69.11-4.2.12H30c-1.75,0-3.39,0-4.81-.12h0c-1.18-.06-2.21-.15-3-.25-1.27-.15-2-.36-2-.57,0-.52,4.43-.94,9.89-.94h.51c5.22,0,9.38.43,9.38.94C39.92,29.76,39.18,30,37.93,30.11Z"/><rect class="cls-3" x="19.14" y="29.71" width="1.01" height="2.09"/><rect class="cls-3" x="39.88" y="29.71" width="1.01" height="2.09"/><path class="cls-2" d="M22.17,28.61a12.87,12.87,0,0,1-1.4-.24,10.15,10.15,0,0,1,1.41-.27c.76-.1,1.74-.19,3-.26h0c1.28-.06,2.86-.1,4.81-.1h.43c1.7,0,3.11,0,4.28.1s2.34.15,3.11.26a10.62,10.62,0,0,1,1.45.27c-.36.09-.82.17-1.37.25a64.6,64.6,0,0,1-7.39.34H30A62.54,62.54,0,0,1,22.17,28.61Z"/><path class="cls-2" d="M40.42,29.18a.28.28,0,0,1,0,.09c0,.43-.68,1.3-9.87,1.35H30c-9.66,0-10.34-.93-10.38-1.35a.31.31,0,0,1,0-.09c0-.13,0-.36.51-.6v.65c.27.5,4.59.89,9.88.89h.51c4.93,0,8.91-.39,9.34-.85v-.71C40.42,28.8,40.42,29,40.42,29.18Z"/><path class="cls-3" d="M40.89,28.82c-.06-.25-.23-.49-.74-.72L39.88,28c-.16,0-.35-.11-.58-.16h0c-.36-.09-.81-.17-1.36-.25a64.6,64.6,0,0,0-7.39-.34H30a62.54,62.54,0,0,0-7.86.35,12.63,12.63,0,0,0-1.39.24h0c-.24.06-.45.12-.62.18l-.23.09c-.78.34-.78.74-.78,1.08v.09c0,.81.38,1.85,10.89,1.85h.51c10.38-.05,10.38-1.1,10.38-1.94A1.46,1.46,0,0,0,40.89,28.82Zm-20.13-.45h0a12.87,12.87,0,0,0,1.4.24c.81-.1,1.84-.19,3-.25h0c1.42-.08,3.06-.12,4.81-.12h.51c1.51,0,2.93.05,4.19.12h0c1.24.06,2.32.15,3.17.26.55-.08,1-.16,1.37-.25s.42-.11.58-.16v.89a.1.1,0,0,1,0,.08.12.12,0,0,1,0,.09c-.43.46-4.41.83-9.34.85H30c-5.29,0-9.61-.39-9.88-.89a.13.13,0,0,1,0-.1v-.94C20.32,28.25,20.52,28.31,20.76,28.37Z"/><path class="cls-2" d="M39.88,28.21v1.06c-.43.46-4.41.83-9.34.85H30c-5.29,0-9.61-.39-9.88-.89v-1c.17.06.37.12.61.18h0a12.87,12.87,0,0,0,1.4.24A62.54,62.54,0,0,0,30,29h.51a64.6,64.6,0,0,0,7.39-.34c.55-.08,1-.16,1.37-.25S39.72,28.26,39.88,28.21Z"/><path class="cls-4" d="M30,28.46c-10.39,0-10.39-1.08-10.39-1.44s0-1.44,10.39-1.44h.44c10,.05,10,1.06,10,1.44s0,1.39-9.88,1.44Z"/><path class="cls-3" d="M30.54,25.08H30c-10.89,0-10.89,1.12-10.89,1.94a.92.92,0,0,0,0,.16c0,.3.11.63.77.92l.23.09c.17.06.37.12.61.18h0a12.87,12.87,0,0,0,1.4.24A62.54,62.54,0,0,0,30,29h.51a64.6,64.6,0,0,0,7.39-.34c.55-.08,1-.16,1.37-.25s.42-.11.58-.16l.27-.11c.51-.23.68-.47.74-.72a1.46,1.46,0,0,0,0-.36C40.92,26.18,40.92,25.13,30.54,25.08Zm7.39,2.5c-.85.11-1.94.2-3.19.26s-2.69.11-4.2.12H30c-1.75,0-3.39,0-4.81-.12h0c-1.18-.06-2.21-.15-3-.25-1.27-.15-2-.36-2-.57,0-.52,4.43-.94,9.89-.94h.51c5.22,0,9.38.43,9.38.94C39.92,27.23,39.18,27.43,37.93,27.58Z"/><rect class="cls-3" x="19.14" y="27.18" width="1.01" height="2.09"/><rect class="cls-3" x="39.88" y="27.18" width="1.01" height="2.09"/><path class="cls-2" d="M18.77,26.09a12.87,12.87,0,0,1-1.4-.24,10.15,10.15,0,0,1,1.41-.27c.76-.1,1.74-.19,3-.26h0c1.28-.06,2.86-.1,4.81-.1h.43c1.7,0,3.11,0,4.28.1s2.34.15,3.11.26a10.62,10.62,0,0,1,1.45.27c-.36.09-.82.17-1.37.25a64.6,64.6,0,0,1-7.39.34h-.51A62.54,62.54,0,0,1,18.77,26.09Z"/><path class="cls-2" d="M37,26.66a.28.28,0,0,1,0,.09c0,.43-.68,1.3-9.87,1.35h-.51c-9.66,0-10.34-.93-10.38-1.35a.31.31,0,0,1,0-.09c0-.13,0-.36.51-.6v.65c.27.5,4.59.89,9.88.89h.51c4.93,0,8.91-.39,9.34-.85V26C37,26.28,37,26.52,37,26.66Z"/><path class="cls-3" d="M37.49,26.3c-.06-.25-.23-.49-.74-.72l-.27-.11c-.16,0-.35-.11-.58-.16h0c-.36-.09-.81-.17-1.36-.25a64.6,64.6,0,0,0-7.39-.34h-.51a62.54,62.54,0,0,0-7.86.35,12.63,12.63,0,0,0-1.39.24h0c-.24.06-.45.12-.62.18l-.23.09c-.78.34-.78.74-.78,1.08v.09c0,.81.38,1.85,10.89,1.85h.51c10.38-.05,10.38-1.1,10.38-1.94A1.46,1.46,0,0,0,37.49,26.3Zm-20.13-.45h0a12.87,12.87,0,0,0,1.4.24c.81-.1,1.84-.19,3-.25h0c1.42-.08,3.06-.12,4.81-.12h.51c1.51,0,2.93.05,4.19.12h0c1.24.06,2.32.15,3.17.26.55-.08,1-.16,1.37-.25s.42-.11.58-.16v.89a.1.1,0,0,1,0,.08.12.12,0,0,1,0,.09c-.43.46-4.41.83-9.34.85h-.51c-5.29,0-9.61-.39-9.88-.89a.13.13,0,0,1,0-.1v-.94C16.92,25.73,17.12,25.79,17.36,25.85Z"/><path class="cls-2" d="M36.48,25.69v1.06c-.43.46-4.41.83-9.34.85h-.51c-5.29,0-9.61-.39-9.88-.89v-1c.17.06.37.12.61.18h0a12.87,12.87,0,0,0,1.4.24,62.54,62.54,0,0,0,7.86.35h.51a64.6,64.6,0,0,0,7.39-.34c.55-.08,1-.16,1.37-.25S36.32,25.74,36.48,25.69Z"/><path class="cls-4" d="M26.63,25.94c-10.4,0-10.4-1.09-10.4-1.44s0-1.44,10.4-1.44h.43c10,0,10,1.06,10,1.44s0,1.39-9.88,1.44Z"/><path class="cls-3" d="M27.14,22.56h-.51c-10.89,0-10.89,1.12-10.89,1.94a.92.92,0,0,0,0,.16c0,.3.11.63.77.92l.23.09c.17.06.37.12.61.18h0a12.87,12.87,0,0,0,1.4.24,62.54,62.54,0,0,0,7.86.35h.51a64.6,64.6,0,0,0,7.39-.34c.55-.08,1-.16,1.37-.25s.42-.11.58-.16l.27-.11c.51-.23.68-.47.74-.72a1.46,1.46,0,0,0,0-.36C37.52,23.66,37.52,22.61,27.14,22.56Zm7.39,2.5c-.85.11-1.94.2-3.19.26s-2.69.11-4.2.12h-.51c-1.75,0-3.39,0-4.81-.12h0c-1.18-.06-2.21-.15-3-.25-1.27-.15-2-.36-2-.57,0-.52,4.43-.94,9.89-.94h.51c5.22,0,9.38.43,9.38.94C36.52,24.71,35.78,24.91,34.53,25.06Z"/><rect class="cls-3" x="15.74" y="24.66" width="1.01" height="2.09"/><rect class="cls-3" x="36.48" y="24.66" width="1.01" height="2.09"/><path class="cls-2" d="M16.39,23.57a12.87,12.87,0,0,1-1.4-.24,10.15,10.15,0,0,1,1.41-.27c.76-.1,1.74-.19,3-.26h0c1.28-.06,2.86-.1,4.81-.1h.43c1.7,0,3.11,0,4.28.1s2.34.15,3.11.26a10.62,10.62,0,0,1,1.45.27c-.36.09-.82.17-1.37.25a64.6,64.6,0,0,1-7.39.34h-.51A62.54,62.54,0,0,1,16.39,23.57Z"/><path class="cls-2" d="M34.64,24.14a.28.28,0,0,1,0,.09c0,.43-.68,1.3-9.87,1.35h-.51c-9.66,0-10.34-.93-10.38-1.35a.31.31,0,0,1,0-.09c0-.13,0-.36.51-.6v.65c.27.5,4.59.89,9.88.89h.51c4.93,0,8.91-.39,9.34-.85v-.71C34.64,23.76,34.64,24,34.64,24.14Z"/><path class="cls-3" d="M35.11,23.78c-.06-.25-.23-.49-.74-.72L34.1,23c-.16-.05-.35-.11-.58-.16h0c-.36-.09-.81-.17-1.36-.25a64.6,64.6,0,0,0-7.39-.34h-.51a62.54,62.54,0,0,0-7.86.35,12.63,12.63,0,0,0-1.39.24h0c-.24.06-.45.12-.62.18l-.23.09c-.78.34-.78.74-.78,1.08v.09c0,.81.38,1.85,10.89,1.85h.51c10.38,0,10.38-1.1,10.38-1.94A1.46,1.46,0,0,0,35.11,23.78ZM15,23.33h0a12.87,12.87,0,0,0,1.4.24c.81-.1,1.84-.19,3-.25h0c1.42-.08,3.06-.12,4.81-.12h.51c1.51,0,2.93.05,4.19.12h0c1.24.06,2.32.15,3.17.26.55-.08,1-.16,1.37-.25s.42-.11.58-.16v.89a.1.1,0,0,1,0,.08.12.12,0,0,1,0,.09c-.43.46-4.41.83-9.34.85h-.51c-5.29,0-9.61-.39-9.88-.89a.13.13,0,0,1,0-.1v-.94C14.54,23.21,14.74,23.27,15,23.33Z"/><path class="cls-2" d="M34.1,23.17v1.06c-.43.46-4.41.83-9.34.85h-.51c-5.29,0-9.61-.39-9.88-.89v-1c.17.06.37.12.61.18h0a12.87,12.87,0,0,0,1.4.24,62.54,62.54,0,0,0,7.86.35h.51a64.6,64.6,0,0,0,7.39-.34c.55-.08,1-.16,1.37-.25S33.94,23.22,34.1,23.17Z"/><path class="cls-4" d="M24.24,23.42c-10.39,0-10.39-1.09-10.39-1.44s0-1.45,10.39-1.45h.44c10,0,10,1.06,10,1.45s0,1.39-9.88,1.44Z"/><path class="cls-3" d="M24.76,20h-.51C13.36,20,13.36,21.16,13.36,22a.92.92,0,0,0,0,.16c0,.3.11.63.77.92l.23.09c.17.06.37.12.61.18h0a12.87,12.87,0,0,0,1.4.24,62.54,62.54,0,0,0,7.86.35h.51a64.6,64.6,0,0,0,7.39-.34c.55-.08,1-.16,1.37-.25s.42-.11.58-.16l.27-.11c.51-.23.68-.47.74-.72a1.46,1.46,0,0,0,0-.36C35.14,21.14,35.14,20.09,24.76,20Zm7.39,2.5c-.85.11-1.94.2-3.19.26s-2.69.11-4.2.12h-.51c-1.75,0-3.39,0-4.81-.12h0c-1.18-.06-2.21-.15-3-.25-1.27-.15-2-.36-2-.57,0-.52,4.43-.94,9.89-.94h.51c5.22,0,9.38.43,9.38.94C34.14,22.19,33.4,22.39,32.15,22.54Z"/><rect class="cls-3" x="13.36" y="22.14" width="1.01" height="2.09"/><rect class="cls-3" x="34.1" y="22.14" width="1.01" height="2.09"/><path class="cls-2" d="M19.33,20.55a12.87,12.87,0,0,1-1.4-.24A10.15,10.15,0,0,1,19.34,20c.76-.1,1.74-.19,3-.26h0c1.28-.06,2.86-.1,4.81-.1h.43c1.7,0,3.11,0,4.28.1,1.32.06,2.34.15,3.11.26a10.62,10.62,0,0,1,1.45.27c-.36.09-.82.17-1.37.25a64.6,64.6,0,0,1-7.39.34h-.51A62.54,62.54,0,0,1,19.33,20.55Z"/><path class="cls-2" d="M37.58,21.12a.28.28,0,0,1,0,.09c0,.43-.68,1.3-9.87,1.35h-.51c-9.66,0-10.34-.93-10.38-1.35a.31.31,0,0,1,0-.09c0-.13,0-.36.51-.6v.65c.27.5,4.59.89,9.88.89h.51c4.93,0,8.91-.39,9.34-.85V20.5C37.58,20.74,37.58,21,37.58,21.12Z"/><path class="cls-3" d="M38.05,20.76c-.06-.25-.23-.49-.74-.72L37,19.93c-.16-.05-.35-.11-.58-.16h0c-.36-.09-.81-.17-1.36-.25a64.6,64.6,0,0,0-7.39-.34h-.51a62.54,62.54,0,0,0-7.86.35,12.63,12.63,0,0,0-1.39.24h0c-.24.06-.45.12-.62.18l-.23.09c-.78.34-.78.74-.78,1.08v.09c0,.81.38,1.85,10.89,1.85h.51c10.38,0,10.38-1.1,10.38-1.94A1.46,1.46,0,0,0,38.05,20.76Zm-20.13-.45h0a12.87,12.87,0,0,0,1.4.24c.81-.1,1.84-.19,3-.25h0c1.42-.08,3.06-.12,4.81-.12h.51c1.51,0,2.93.05,4.19.12h0c1.24.06,2.32.15,3.17.26.55-.08,1-.16,1.37-.25s.42-.11.58-.16V21a.1.1,0,0,1,0,.08.12.12,0,0,1,0,.09c-.43.46-4.41.83-9.34.85h-.51c-5.29,0-9.61-.39-9.88-.89a.13.13,0,0,1,0-.1v-.94C17.48,20.19,17.68,20.25,17.92,20.31Z"/><path class="cls-2" d="M37,20.15v1.06c-.43.46-4.41.83-9.34.85h-.51c-5.29,0-9.61-.39-9.88-.89v-1c.17.06.37.12.61.18h0a12.87,12.87,0,0,0,1.4.24,62.54,62.54,0,0,0,7.86.35h.51a64.6,64.6,0,0,0,7.39-.34c.55-.08,1-.16,1.37-.25S36.88,20.2,37,20.15Z"/><path class="cls-4" d="M27.19,20.4C16.8,20.4,16.8,19.31,16.8,19s0-1.45,10.39-1.45h.44c10,0,10,1.06,10,1.45s0,1.39-9.88,1.44Z"/><path class="cls-3" d="M27.7,17h-.51C16.3,17,16.3,18.14,16.3,19a.92.92,0,0,0,0,.16c0,.3.11.63.77.92l.23.09c.17.06.37.12.61.18h0a12.87,12.87,0,0,0,1.4.24,62.54,62.54,0,0,0,7.86.35h.51a64.6,64.6,0,0,0,7.39-.34c.55-.08,1-.16,1.37-.25s.42-.11.58-.16l.27-.11c.51-.23.68-.47.74-.72a1.46,1.46,0,0,0,0-.36C38.08,18.12,38.08,17.07,27.7,17Zm7.39,2.5c-.85.11-1.94.2-3.19.26s-2.69.11-4.2.12h-.51c-1.75,0-3.39,0-4.81-.12h0c-1.18-.06-2.21-.15-3-.25-1.27-.15-2-.36-2-.57,0-.52,4.43-.94,9.89-.94h.51c5.22,0,9.38.43,9.38.94C37.08,19.17,36.34,19.37,35.09,19.52Z"/><rect class="cls-3" x="16.3" y="19.12" width="1.01" height="2.09"/><rect class="cls-3" x="37.04" y="19.12" width="1.01" height="2.09"/><path class="cls-2" d="M20.22,18a12.87,12.87,0,0,1-1.4-.24,10.15,10.15,0,0,1,1.41-.27c.76-.1,1.74-.19,3-.26h0c1.28-.06,2.86-.1,4.81-.1h.43c1.7,0,3.11,0,4.28.1,1.32.06,2.34.15,3.11.26a10.62,10.62,0,0,1,1.45.27c-.36.09-.82.17-1.37.25a64.6,64.6,0,0,1-7.39.34h-.51A62.54,62.54,0,0,1,20.22,18Z"/><path class="cls-2" d="M38.47,18.59a.28.28,0,0,1,0,.09c0,.43-.68,1.3-9.87,1.35h-.51c-9.66,0-10.34-.93-10.38-1.35a.31.31,0,0,1,0-.09c0-.13,0-.36.51-.6v.65c.27.5,4.59.89,9.88.89h.51c4.93,0,8.91-.39,9.34-.85V18C38.47,18.21,38.47,18.45,38.47,18.59Z"/><path class="cls-3" d="M38.94,18.23c-.06-.25-.23-.49-.74-.72l-.27-.11c-.16,0-.35-.11-.58-.16h0c-.36-.09-.81-.17-1.36-.25a64.6,64.6,0,0,0-7.39-.34h-.51a62.54,62.54,0,0,0-7.86.35,12.63,12.63,0,0,0-1.39.24h0c-.24.06-.45.12-.62.18l-.23.09c-.78.34-.78.74-.78,1.08v.09c0,.81.38,1.85,10.89,1.85h.51C39,20.48,39,19.43,39,18.59A1.46,1.46,0,0,0,38.94,18.23Zm-20.13-.45h0a12.87,12.87,0,0,0,1.4.24c.81-.1,1.84-.19,3-.25h0c1.42-.08,3.06-.12,4.81-.12h.51c1.51,0,2.93.05,4.19.12h0c1.24.06,2.32.15,3.17.26.55-.08,1-.16,1.37-.25s.42-.11.58-.16v.89a.1.1,0,0,1,0,.08.12.12,0,0,1,0,.09c-.43.46-4.41.83-9.34.85h-.51c-5.29,0-9.61-.39-9.88-.89a.13.13,0,0,1,0-.1V17.6C18.37,17.66,18.57,17.72,18.81,17.78Z"/><path class="cls-2" d="M37.93,17.62v1.06c-.43.46-4.41.83-9.34.85h-.51c-5.29,0-9.61-.39-9.88-.89v-1c.17.06.37.12.61.18h0a12.87,12.87,0,0,0,1.4.24,62.54,62.54,0,0,0,7.86.35h.51A64.6,64.6,0,0,0,36,18c.55-.08,1-.16,1.37-.25S37.77,17.67,37.93,17.62Z"/><path class="cls-4" d="M28.07,17.87c-10.39,0-10.39-1.08-10.39-1.44S17.68,15,28.07,15h.44c10,0,10,1.06,10,1.44s0,1.4-9.88,1.44Z"/><path class="cls-3" d="M28.59,14.49h-.51c-10.89,0-10.89,1.12-10.89,1.94a.92.92,0,0,0,0,.16c0,.3.11.63.77.92l.23.09c.17.06.37.12.61.18h0a12.87,12.87,0,0,0,1.4.24,62.54,62.54,0,0,0,7.86.35h.51A64.6,64.6,0,0,0,36,18c.55-.08,1-.16,1.37-.25s.42-.11.58-.16l.27-.11c.51-.23.68-.47.74-.72a1.46,1.46,0,0,0,0-.36C39,15.59,39,14.54,28.59,14.49ZM36,17c-.85.11-1.94.2-3.19.26s-2.69.11-4.2.12h-.51c-1.75,0-3.39,0-4.81-.12h0c-1.18-.06-2.21-.15-3-.25-1.27-.15-2-.36-2-.57,0-.52,4.43-.94,9.89-.94h.51c5.22,0,9.38.43,9.38.94C38,16.64,37.23,16.84,36,17Z"/><rect class="cls-3" x="17.19" y="16.59" width="1.01" height="2.09"/><rect class="cls-3" x="37.93" y="16.59" width="1.01" height="2.09"/><path class="cls-2" d="M24.7,15.5a12.87,12.87,0,0,1-1.4-.24A10.15,10.15,0,0,1,24.71,15c.76-.1,1.74-.19,3-.26h0c1.28-.06,2.86-.1,4.81-.1H33c1.7,0,3.11,0,4.28.1s2.34.15,3.11.26a10.62,10.62,0,0,1,1.45.27c-.36.09-.82.17-1.37.25a64.6,64.6,0,0,1-7.39.34h-.51A62.54,62.54,0,0,1,24.7,15.5Z"/><path class="cls-2" d="M43,16.07a.28.28,0,0,1,0,.09c0,.43-.68,1.3-9.87,1.35h-.51c-9.66,0-10.34-.93-10.38-1.35a.31.31,0,0,1,0-.09c0-.13,0-.36.51-.6v.65c.27.5,4.59.89,9.88.89h.51c4.93,0,8.91-.39,9.34-.85v-.71C43,15.69,43,15.93,43,16.07Z"/><path class="cls-3" d="M43.42,15.71c-.06-.25-.23-.49-.74-.72l-.27-.11c-.16-.05-.35-.11-.58-.16h0c-.36-.09-.81-.17-1.36-.25a64.6,64.6,0,0,0-7.39-.34h-.51a62.54,62.54,0,0,0-7.86.35,12.63,12.63,0,0,0-1.39.24h0c-.24.06-.45.12-.62.18l-.23.09c-.78.34-.78.74-.78,1.08v.09c0,.81.38,1.85,10.89,1.85h.51c10.38-.05,10.38-1.1,10.38-1.94A1.46,1.46,0,0,0,43.42,15.71Zm-20.13-.45h0a12.87,12.87,0,0,0,1.4.24c.81-.1,1.84-.19,3-.25h0c1.42-.08,3.06-.12,4.81-.12h.51c1.51,0,2.93,0,4.19.12h0c1.24.06,2.32.15,3.17.26.55-.08,1-.16,1.37-.25s.42-.11.58-.16V16a.1.1,0,0,1,0,.08.12.12,0,0,1,0,.09C42,16.62,38,17,33.07,17h-.51c-5.29,0-9.61-.39-9.88-.89a.13.13,0,0,1,0-.1v-.94C22.85,15.14,23.05,15.2,23.29,15.26Z"/><path class="cls-2" d="M42.41,15.1v1.06C42,16.62,38,17,33.07,17h-.51c-5.29,0-9.61-.39-9.88-.89v-1c.17.06.37.12.61.18h0a12.87,12.87,0,0,0,1.4.24,62.54,62.54,0,0,0,7.86.35h.51a64.6,64.6,0,0,0,7.39-.34c.55-.08,1-.16,1.37-.25S42.25,15.15,42.41,15.1Z"/><path class="cls-4" d="M32.56,15.35c-10.39,0-10.39-1.08-10.39-1.44s0-1.44,10.39-1.44H33c10,0,10,1.06,10,1.44s0,1.39-9.88,1.44Z"/><path class="cls-3" d="M33.07,12h-.51c-10.89,0-10.89,1.12-10.89,1.94a.92.92,0,0,0,0,.16c0,.3.11.63.77.92l.23.09c.17.06.37.12.61.18h0a12.87,12.87,0,0,0,1.4.24,62.54,62.54,0,0,0,7.86.35h.51a64.6,64.6,0,0,0,7.39-.34c.55-.08,1-.16,1.37-.25s.42-.11.58-.16l.27-.11c.51-.23.68-.47.74-.72a1.46,1.46,0,0,0,0-.36C43.45,13.07,43.45,12,33.07,12Zm7.39,2.5c-.85.11-1.94.2-3.19.26s-2.69.11-4.2.12h-.51c-1.75,0-3.39,0-4.81-.12h0c-1.18-.06-2.21-.15-3-.25-1.27-.15-2-.36-2-.57,0-.52,4.43-.94,9.89-.94h.51c5.22,0,9.38.43,9.38.94C42.45,14.12,41.71,14.32,40.46,14.47Z"/><rect class="cls-3" x="21.67" y="14.07" width="1.01" height="2.09"/><rect class="cls-3" x="42.41" y="14.07" width="1.01" height="2.09"/><path class="cls-2" d="M16.23,35.53v-20h.46a10,10,0,0,1,0,20h-.46Z"/><path class="cls-3" d="M16.73,16a9.5,9.5,0,0,1,0,19V16m0-1h-1V36h1a10.5,10.5,0,0,0,0-21Z"/><path class="cls-4" d="M15.05,35.53a10,10,0,0,1,0-20h.54a10,10,0,0,1,0,20h-.51Z"/><path class="cls-3" d="M15.11,16h.45a9.5,9.5,0,0,1,0,19h-.51a9.5,9.5,0,0,1,0-19h.06m-.06-1a10.5,10.5,0,0,0,0,21h.54a10.5,10.5,0,0,0,0-21h-.54Z"/><path class="cls-3" d="M9.14,21.24A1.42,1.42,0,0,1,9.92,21l.9,0h.94a3.24,3.24,0,0,1,2.11.72,2.41,2.41,0,0,1,.81,1.92,2.46,2.46,0,0,1-.4,1.39,2.16,2.16,0,0,1-1,.86l1.53,2.05a.83.83,0,0,1,.21.52.68.68,0,0,1-.27.54,1,1,0,0,1-.62.23.6.6,0,0,1-.3-.07,1,1,0,0,1-.2-.14l-.2-.23-.69-1c-.43-.63-.76-1.11-1-1.44h-1.2c0,.2,0,.56,0,1.07s0,.85,0,1c0,.51-.24.78-.7.81A1.15,1.15,0,0,1,9.08,29a.85.85,0,0,1-.22-.68c0-1.49,0-3.24,0-5.27,0-.12,0-.32,0-.58s0-.45,0-.57A.79.79,0,0,1,9.14,21.24Zm1.35,1.15v2.47h1a1.9,1.9,0,0,0,1.1-.3,1.06,1.06,0,0,0,.45-.93,1.11,1.11,0,0,0-.36-.93,1.63,1.63,0,0,0-1.09-.32Z"/><path class="cls-3" d="M16.91,23.52a.63.63,0,0,1,.69.49l0,.4a1.91,1.91,0,0,1,.72-.66,2.06,2.06,0,0,1,1-.24,2.38,2.38,0,0,1,1.89.79,3,3,0,0,1,.69,2,2.87,2.87,0,0,1-.79,2.08,2.68,2.68,0,0,1-2,.83,1.68,1.68,0,0,1-1.41-.61c0,.05,0,.19,0,.41v.5c0,.09,0,.3,0,.65s0,.62,0,.84c0,.52-.31.79-.93.79s-.73-.25-.73-.76l0-4.67,0-2.14C16.09,23.76,16.37,23.52,16.91,23.52Zm3,1.79a1.17,1.17,0,0,0-.87-.39,1.28,1.28,0,0,0-.95.41,1.42,1.42,0,0,0-.4,1.05A1.53,1.53,0,0,0,18,27.44a1.19,1.19,0,0,0,.94.37,1.24,1.24,0,0,0,.95-.42,1.59,1.59,0,0,0,.37-1.1A1.33,1.33,0,0,0,19.91,25.31Z"/><path class="cls-2" d="M15.73,35.85a11,11,0,0,0,1.42.17H15.73Z"/><path class="cls-3" d="M15.73,35.85V36h1.42a11,11,0,0,1-1.42-.17Z"/><path class="cls-2" d="M17.15,15a11,11,0,0,0-1.42.17V15h1.42Z"/><path class="cls-3" d="M16.69,15h-1v.17A11,11,0,0,1,17.15,15Z"/></svg>