<svg xmlns="http://www.w3.org/2000/svg" width="17" height="17" viewBox="0 0 17 17">
    <path fill="#4BCEFA" fill-rule="evenodd" d="M8.5 0c2.308 0 2.598.01 3.505.051.904.041 1.522.185 2.063.395a4.166 4.166 0 0 1 1.505.98c.473.473.764.947.98 1.506.21.54.355 1.159.396 2.063.041.907.051 1.197.051 3.505s-.01 2.598-.051 3.505c-.041.904-.185 1.522-.395 2.063a4.167 4.167 0 0 1-.98 1.505 4.167 4.167 0 0 1-1.506.98c-.54.21-1.159.355-2.063.396-.907.041-1.197.051-3.505.051s-2.598-.01-3.505-.051c-.904-.041-1.522-.185-2.063-.395a4.167 4.167 0 0 1-1.505-.98 4.166 4.166 0 0 1-.98-1.506c-.21-.54-.355-1.159-.396-2.063C.01 11.098 0 10.808 0 8.5s.01-2.598.051-3.505c.041-.904.185-1.522.395-2.063a4.166 4.166 0 0 1 .98-1.505 4.166 4.166 0 0 1 1.506-.98C3.472.236 4.091.091 4.995.05 5.902.01 6.192 0 8.5 0zm0 1.532c-2.27 0-2.538.008-3.435.05-.828.037-1.279.175-1.578.292-.397.154-.68.338-.977.636-.298.297-.482.58-.636.977-.117.3-.255.75-.293 1.578-.04.897-.05 1.165-.05 3.435s.01 2.538.05 3.435c.038.828.176 1.279.293 1.578.154.397.338.68.636.977.297.298.58.482.977.636.3.117.75.255 1.578.293.896.04 1.165.05 3.435.05s2.539-.01 3.435-.05c.828-.038 1.279-.176 1.578-.293.397-.154.68-.338.977-.636.298-.297.482-.58.636-.977.117-.3.255-.75.293-1.578.04-.897.05-1.165.05-3.435s-.01-2.538-.05-3.435c-.038-.828-.176-1.279-.293-1.578a2.633 2.633 0 0 0-.636-.977 2.633 2.633 0 0 0-.977-.636c-.3-.117-.75-.255-1.578-.293-.897-.04-1.165-.05-3.435-.05zm0 2.603a4.365 4.365 0 1 1 0 8.73 4.365 4.365 0 0 1 0-8.73zm0 7.198a2.833 2.833 0 1 0 0-5.666 2.833 2.833 0 0 0 0 5.666zm5.557-7.37a1.02 1.02 0 1 1-2.04 0 1.02 1.02 0 0 1 2.04 0z"/>
</svg>
