<svg id="Layer_1" data-name="Layer 1" xmlns="http://www.w3.org/2000/svg" viewBox="0 0 812.63 191.52"><defs><style>.cls-1{fill:#37a0f4;}.cls-2{fill:#fff;}</style></defs><title>Artboard 24</title><path class="cls-1" d="M191.51,95.76A95.76,95.76,0,1,1,95.76,0a95.75,95.75,0,0,1,95.75,95.76"/><path class="cls-2" d="M98.35,44.79A44.72,44.72,0,0,0,53.64,89.5v64.17h1.85a29.86,29.86,0,0,0,28-27.92v-1.52c0-.22,0-2.68,0-2.9l0,2.23V89.5A14.9,14.9,0,0,1,98.35,74.59h14.9V89.5a14.9,14.9,0,0,1-14.9,14.91c-.42,0-.84,0-1.26-.07H90.73V134.2h7.62a44.7,44.7,0,0,0,44.71-44.7V44.79Z"/><path class="cls-1" d="M251.94,48.34l20.39-3.44.72,8.9q7.32-9,21.4-9a25.65,25.65,0,0,1,19.24,8q8,8.06,8,20.25V94.58a27.77,27.77,0,0,1-8,20.25,26,26,0,0,1-19.24,8q-14.51,0-21.4-7.9v35.9l-21.11,2.88Zm21,43.23a15.52,15.52,0,0,0,4.16,11.05,12.78,12.78,0,0,0,9.77,4.17q13.79,0,13.78-15.22V75.48q0-15.21-13.78-15.22-13.93,0-13.93,15.22Z"/><path class="cls-1" d="M350,112.67q-10.18-10.19-10.19-25.56V80.94a35,35,0,0,1,10.05-25.13q10.62-11.06,27-11.06,16.65,0,27.43,11.06a34.89,34.89,0,0,1,10.05,25.27v6.18q0,15.22-10.05,25.41-10.49,10.78-27,10.78Q360.52,123.45,350,112.67ZM361,88.84q0,18.09,16.37,18.09,15.94,0,15.94-18.09V79.5q0-18.23-16.37-18.23-15.94,0-15.94,18.23Z"/><path class="cls-1" d="M538.58,52.65a25.37,25.37,0,0,1,6.9,18.09v51.7h-21V77.21q0-13.93-12.35-13.93-12.63,0-12.64,13.49v45.67h-21V77.21q0-13.93-12.35-13.93T453.72,76.92v45.52H432.61V47.62l21.11-2.87V57.53q8-12.35,21-12.35,15.79,0,22.69,15.22l2-2.87q8.19-12.35,21.25-12.35A23.86,23.86,0,0,1,538.58,52.65Z"/><path class="cls-1" d="M573.78,112.67q-10.2-10.19-10.2-25.56V80.94a35,35,0,0,1,10.06-25.13q10.62-11.06,27-11.06,16.67,0,27.43,11.06a34.89,34.89,0,0,1,10.05,25.27v6.18q0,15.22-10.05,25.41-10.48,10.78-27,10.78Q584.26,123.45,573.78,112.67Zm10.91-23.83q0,18.09,16.37,18.09,15.95,0,15.94-18.09V79.5q0-18.23-16.37-18.23-15.93,0-15.94,18.23Z"/><path class="cls-1" d="M718.83,52.65a24.19,24.19,0,0,1,7.75,18.09v51.7h-21V77.64a14.17,14.17,0,0,0-4.17-10.2,13.5,13.5,0,0,0-9.9-4.16,13.69,13.69,0,0,0-10.06,4.16,13.89,13.89,0,0,0-4.16,10.2v44.8H656.22V47.62l21.11-2.87V56.1q7-10.92,22.69-10.92A26.45,26.45,0,0,1,718.83,52.65Z"/><path class="cls-1" d="M803,53.66q9.63,9.18,9.62,23.26v46h-19.1l-.57-6.75q-7.9,7.62-20.53,7.61a28.82,28.82,0,0,1-19.68-7.18q-8-7-8-16.94V97.45q0-10,8-17.08a29.2,29.2,0,0,1,19.68-7q12.78,0,20.53,6.89V74.48q0-8-5.6-11.63A16.69,16.69,0,0,0,778,60.4h-1.15a38.22,38.22,0,0,0-22.26,8.33q-1.59-4.31-3.16-9L749,51.93a63.07,63.07,0,0,1,13.5-5.17,66.31,66.31,0,0,1,16.94-2Q793.69,44.75,803,53.66Zm-22.69,54.71q12.93,0,12.93-10.2,0-10-12.93-10h-2.87q-12.91,0-12.92,10,0,10.2,12.92,10.2Z"/></svg>