<svg xmlns="http://www.w3.org/2000/svg" width="64" height="64" viewBox="0 0 64 64">
    <g fill="none" fill-rule="nonzero">
        <path fill="#FFF" d="M0 0h63.947v63.947H0z" opacity=".01"/>
        <path fill="#37A0F4" d="M45.813 56.64h-32.92a1.947 1.947 0 0 1-1.947-1.973v-30.16c0-.331.082-.657.24-.947l5.827-10.667h10.574a1.333 1.333 0 0 1 0 2.667h-9l-4.974 9.12v29.333h31.48v-18.44a1.333 1.333 0 0 1 2.667 0v19.094a1.948 1.948 0 0 1-1.947 1.973z"/>
        <path fill="#37A0F4" d="M27 25.68h-6.267L16.56 14.667a1.333 1.333 0 1 1 2.48-.947l3.533 9.333H27a1.333 1.333 0 0 1 0 2.667v-.04z"/>
        <path fill="#37A0F4" d="M17.8 15.56a1.333 1.333 0 0 1-1.333-1.333V9.333c0-1.09.883-1.973 1.973-1.973h12.933a1.333 1.333 0 1 1 0 2.667h-12.24v4.253a1.333 1.333 0 0 1-1.333 1.28zM20.32 24.347h2.667v30.96H20.32zM39.373 49.427h-8a1.333 1.333 0 0 1 0-2.667h8a1.333 1.333 0 1 1 0 2.667z"/>
        <path fill="#FD9644" d="M47.467 21.44H36.613a1.333 1.333 0 0 1 0-2.667h10.854a1.333 1.333 0 0 1 0 2.667z"/>
        <path fill="#FD9644" d="M42.04 26.92a1.333 1.333 0 0 1-1.333-1.333v-10.92a1.333 1.333 0 1 1 2.666 0V25.64a1.333 1.333 0 0 1-1.333 1.28z"/>
        <path fill="#FD9644" d="M42.04 32.107a12 12 0 1 1 12-12c0 6.627-5.373 12-12 12zm0-21.334a9.333 9.333 0 1 0 0 18.667 9.333 9.333 0 0 0 0-18.667z"/>
    </g>
</svg>
